<svg viewBox="0 0 48 47" fill="none"
    xmlns="http://www.w3.org/2000/svg">
    <path d="M23.9956 46.5582C34.5095 46.5582 40.3583 46.5582 44.1791 42.8855C48 39.2127 48 33.599 48 23.4843C48 13.3696 48 7.75585 44.1791 4.08309C40.3583 0.418701 34.5182 0.418701 23.9956 0.418701C13.4731 0.418701 7.633 0.418701 3.82085 4.09146C0 7.75585 0 13.3779 0 23.4843C0 33.5906 0 39.2127 3.82085 42.8855C7.633 46.5582 13.4818 46.5582 23.9956 46.5582Z" fill="black"/>
    <rect x="15" y="15" width="18" height="11" fill="white"/>
    <path d="M22.2594 5.53197C22.2489 5.54973 22.2839 6.10385 22.3399 6.76453L22.4379 7.96867L22.5639 8.22442L22.6899 8.47661L22.4554 8.49792C22.3259 8.51213 22.1614 8.52989 22.0914 8.54055C21.9934 8.55476 21.9584 8.54765 21.9584 8.51213C21.9584 8.48727 21.9199 8.14982 21.8779 7.7662L21.7974 7.07L21.4089 6.64731C21.1954 6.41643 20.9329 6.14292 20.8314 6.03991L20.6424 5.8552L19.1829 6.2033C18.3814 6.39512 17.7129 6.56206 17.7024 6.57272C17.6814 6.59403 18.0524 8.82826 18.0804 8.85668C18.0909 8.86734 18.3639 8.94193 18.6894 9.02007C19.0149 9.10177 19.2879 9.17281 19.2949 9.17992C19.3054 9.18702 19.3859 9.57419 19.4734 10.0395L19.6379 10.8813L19.4944 10.9311C19.4139 10.9559 19.3439 10.9844 19.3369 10.9915C19.3299 10.9986 19.3579 11.1833 19.4034 11.3999C19.4699 11.7232 19.4769 11.7978 19.4384 11.8226C19.4139 11.8404 19.1479 11.9327 18.8539 12.0358C17.0479 12.6432 16.1099 12.5721 15.8859 11.8084C15.8054 11.5349 15.8194 11.4177 15.9419 11.2721C16.0854 11.1087 16.0434 11.0589 15.7634 11.0625C15.5079 11.066 15.2769 11.1939 15.1579 11.3964L15.0774 11.5349L14.9409 11.3751C14.7449 11.1335 14.4579 11.0057 14.1184 11.0057C13.8139 11.0057 13.6354 11.0767 13.4604 11.2579C13.3169 11.4106 13.1909 11.677 13.1419 11.9363C13.1244 12.05 13.0789 12.192 13.0474 12.256C12.9144 12.5259 12.2109 13.3145 11.9904 13.4459L11.8364 13.5383L11.6754 13.4601C11.3534 13.3003 10.9544 13.3287 10.6184 13.5383C10.0479 13.8899 10.0654 14.8809 10.6429 15.1722C11.1294 15.4209 11.6159 15.2468 11.7734 14.7708L11.8399 14.5755L11.8959 14.714C12.0219 15.0195 12.1409 15.7583 12.2249 16.7955C12.2599 17.2004 12.3684 18.8131 12.3684 18.9161C12.3684 18.9835 12.1479 18.8379 12.0044 18.6745C11.8574 18.5147 11.8434 18.3726 11.9379 18.1026C11.9694 18.0103 11.9869 17.925 11.9764 17.9108C11.9379 17.8718 11.7489 17.9357 11.5844 18.0423C11.3149 18.2128 11.2064 18.5964 11.3359 18.9161C11.4059 19.083 11.4059 19.0901 11.2799 19.1398C11.1574 19.1931 11.0244 19.3601 10.9894 19.5057C10.9579 19.6442 11.0209 19.8574 11.1294 19.9604C11.2484 20.074 11.5179 20.0811 11.6334 19.9746C11.7419 19.8751 11.7769 19.7614 11.7384 19.6549C11.7104 19.5767 11.7139 19.5661 11.7769 19.5661C11.8854 19.5661 12.0779 19.6691 12.1339 19.7543C12.2389 19.9248 12.2354 19.9533 12.0744 20.0278C11.7909 20.1664 11.6089 20.4186 11.6929 20.5571C11.7104 20.5891 11.7909 20.6281 11.8644 20.6459C12.0989 20.6956 12.1549 20.7312 12.2284 20.8803C12.3404 21.1006 12.3544 21.335 12.2669 21.4735C12.2039 21.573 12.1724 21.5907 12.0569 21.5907C11.8959 21.5907 11.7734 21.47 11.7734 21.3101C11.7734 20.8697 11.3744 20.4896 10.9544 20.5358C10.7374 20.5571 10.6044 20.6175 10.4644 20.7596C10.1214 21.1112 10.1179 21.708 10.4609 22.1129C10.5904 22.2656 10.9194 22.4539 11.1714 22.5178C11.3814 22.5676 11.5669 22.7523 11.6964 23.0364C11.7979 23.2602 12.0989 24.2903 12.0709 24.3187C12.0674 24.3258 12.0429 24.2725 12.0184 24.205C11.9659 24.0417 11.9064 24.0417 11.8329 24.2015C11.7524 24.3684 11.7594 24.6171 11.8399 24.784C11.9099 24.919 12.1654 25.1783 12.2284 25.1783C12.2494 25.1783 12.2634 25.2742 12.2634 25.3914C12.2634 25.633 12.2074 25.7999 11.8679 26.5458C11.1084 28.226 11.0279 29.5722 11.5844 31.2274C12.1864 33.0035 13.4884 34.6125 15.3259 35.8486C15.8964 36.2323 16.2009 36.4099 17.7934 37.2908C19.4139 38.1894 19.7219 38.3777 20.2574 38.8146C20.6739 39.1556 21.0519 39.6955 21.2269 40.2034C21.2689 40.3313 21.3144 40.445 21.3284 40.4627C21.3389 40.4769 21.5419 40.3988 21.7799 40.2922C22.3504 40.0258 22.3819 40.0223 22.4974 40.1786C22.5499 40.2461 22.6479 40.445 22.7144 40.6155C22.7844 40.7895 22.8544 40.9458 22.8719 40.9636C22.8999 40.9955 23.2184 40.683 23.2184 40.6226C23.2184 40.5302 23.3199 40.6439 23.5614 41.0133C23.9079 41.5355 23.9289 41.5532 24.0374 41.4502C24.0829 41.404 24.2369 41.198 24.3769 40.992C24.5169 40.7824 24.6359 40.6048 24.6464 40.5942C24.6534 40.5835 24.7339 40.6617 24.8214 40.7647C24.9124 40.8677 25.0104 40.9494 25.0419 40.9494C25.0734 40.9494 25.1364 40.8499 25.2064 40.6723C25.3394 40.342 25.5074 40.0614 25.5739 40.0614C25.6264 40.0614 25.9589 40.1999 26.3474 40.381C26.4769 40.4414 26.5924 40.4876 26.5959 40.4805C26.6029 40.4734 26.6484 40.3562 26.7009 40.2212C26.9669 39.5001 27.3729 39.0029 28.1009 38.4914C28.5104 38.2036 28.8289 38.0189 30.3024 37.202C31.7444 36.4063 32.3359 36.0547 32.8259 35.7101C33.8934 34.9571 34.8209 34.0158 35.4719 33.0283C35.7904 32.5452 36.1999 31.6999 36.3714 31.1813C36.8999 29.558 36.8124 28.1798 36.0809 26.5636C35.7869 25.91 35.7134 25.7253 35.6784 25.5406C35.6364 25.2991 35.6679 25.1925 35.8044 25.1037C35.9899 24.9901 36.1439 24.7343 36.1579 24.5247C36.1754 24.3116 36.0844 24.0914 35.9829 24.0985C35.9514 24.102 35.9234 24.0985 35.9234 24.0914C35.9234 24.031 36.1929 23.2034 36.2629 23.0542C36.4064 22.7487 36.6444 22.5143 36.8124 22.5143C36.9384 22.5143 37.2604 22.358 37.4074 22.223C37.4984 22.1449 37.6139 21.9957 37.6664 21.8962C37.7469 21.7399 37.7609 21.6724 37.7609 21.4131C37.7609 21.1574 37.7469 21.0864 37.6699 20.9336C37.3339 20.28 36.3994 20.3369 36.2419 21.0224C36.2209 21.1112 36.1929 21.2604 36.1789 21.3599C36.1544 21.5055 36.1334 21.5446 36.0529 21.5836C35.9094 21.6547 35.7799 21.5979 35.6994 21.4309C35.6399 21.3101 35.6364 21.2711 35.6714 21.1041C35.7169 20.8803 35.8254 20.7098 35.9339 20.6885C36.2839 20.621 36.2909 20.621 36.3014 20.4932C36.3119 20.3937 36.2909 20.3546 36.1579 20.2232C36.0704 20.138 35.9409 20.0492 35.8744 20.0243C35.7694 19.9852 35.7519 19.9639 35.7694 19.9035C35.8114 19.7721 35.8919 19.6797 36.0109 19.6229C36.1964 19.5306 36.2384 19.5448 36.2384 19.7046C36.2384 20.0421 36.6304 20.177 36.8684 19.9213C37.0959 19.6762 36.9909 19.25 36.6794 19.1363L36.5604 19.0937L36.6269 18.9196C36.7634 18.5644 36.6759 18.2341 36.3924 18.0423C36.2314 17.9357 36.0424 17.8718 36.0004 17.9108C35.9899 17.925 36.0074 18.0103 36.0389 18.1026C36.1089 18.298 36.1159 18.4614 36.0564 18.5893C36.0179 18.6781 35.6469 18.98 35.6189 18.948C35.6119 18.9409 35.6294 18.5538 35.6609 18.0884C35.8009 15.9004 35.8814 15.3001 36.1054 14.7992L36.1894 14.611L36.2384 14.785C36.3259 15.1012 36.6269 15.3392 36.9419 15.3392C37.1029 15.3392 37.3724 15.2361 37.5089 15.1225C37.6979 14.9662 37.7854 14.7673 37.8064 14.4618C37.8414 13.8864 37.5544 13.5241 36.9699 13.4211C36.7249 13.3784 36.5429 13.4068 36.3294 13.517C36.1999 13.5844 36.1124 13.5596 35.8954 13.3855C35.6784 13.2115 35.1464 12.6076 35.0274 12.4016C34.9784 12.3199 34.9084 12.121 34.8699 11.9576C34.7894 11.6095 34.6809 11.4141 34.4814 11.2401C34.3134 11.0945 34.1629 11.0412 33.9074 11.0412C33.5679 11.0412 33.1969 11.2223 33.0359 11.4674C32.9974 11.5243 32.9589 11.574 32.9484 11.574C32.9379 11.574 32.8959 11.5136 32.8504 11.439C32.7209 11.2259 32.5564 11.1335 32.2764 11.1193C31.9649 11.1016 31.9229 11.1371 32.0699 11.3076C32.2589 11.5278 32.2099 11.851 31.9369 12.153C31.7654 12.3412 31.4644 12.4975 31.2124 12.5224C30.9884 12.5473 30.5929 12.4869 30.2044 12.3696C29.8369 12.2595 28.5979 11.8191 28.5629 11.7871C28.5489 11.7765 28.5699 11.6095 28.6084 11.4177C28.6469 11.2259 28.6714 11.0554 28.6609 11.0376C28.6504 11.0199 28.5769 10.9879 28.4999 10.9666C28.3844 10.9311 28.3634 10.9098 28.3739 10.8494C28.3844 10.8067 28.4579 10.4196 28.5419 9.98623L28.6924 9.19768L29.2979 9.04494C29.8124 8.91706 29.9069 8.88154 29.9209 8.82116C30.0084 8.43754 30.2849 6.61889 30.2639 6.59758C30.2464 6.57982 29.5849 6.41288 28.7904 6.22462L27.3449 5.88007L26.7639 6.46616L26.1829 7.05579L26.1024 7.7591C26.0569 8.14982 26.0219 8.48727 26.0184 8.50858C26.0184 8.55476 25.8329 8.54765 25.4339 8.48727L25.2869 8.46595L25.4024 8.21376C25.5179 7.96512 25.5214 7.94736 25.6159 6.78584C25.6684 6.13937 25.7034 5.58525 25.6929 5.55328C25.6719 5.5071 25.4654 5.5 23.9744 5.5C23.0329 5.5 22.2699 5.51421 22.2594 5.53197ZM23.4634 6.15713V6.67573L22.9664 6.66507L22.4659 6.65441L22.4449 6.46616C22.4309 6.36315 22.4099 6.13226 22.3959 5.95821L22.3714 5.64208H22.9174H23.4634V6.15713ZM25.5844 5.70247C25.5774 5.73799 25.5599 5.90849 25.5459 6.08609C25.5354 6.26014 25.5179 6.46616 25.5074 6.5372L25.4864 6.67217H24.5449H23.6034V6.15713V5.64208H24.6044C25.5389 5.64208 25.6019 5.64563 25.5844 5.70247ZM20.6459 6.54075C20.6809 6.78939 20.7019 6.99896 20.6914 7.00962C20.6739 7.02738 19.8129 7.23695 19.7989 7.22629C19.7849 7.21564 19.6449 6.23883 19.6554 6.22817C19.6624 6.22462 19.8619 6.17134 20.1034 6.1145C20.3974 6.04346 20.5479 6.02215 20.5619 6.04702C20.5724 6.06833 20.6109 6.28855 20.6459 6.54075ZM27.9644 6.15713L28.3494 6.24948L28.2829 6.73611C28.2444 7.00251 28.2129 7.22629 28.2094 7.22984C28.2059 7.23695 27.2994 7.02738 27.2924 7.01672C27.2889 7.01317 27.3169 6.8107 27.3519 6.56561C27.3869 6.32052 27.4184 6.1003 27.4184 6.07188C27.4184 6.03991 27.4464 6.03281 27.4989 6.04346C27.5409 6.05767 27.7509 6.1074 27.9644 6.15713ZM21.3284 6.74677L21.6749 7.12328L21.7134 7.43231C21.7344 7.60636 21.7449 7.75199 21.7379 7.7591C21.7309 7.7662 21.5314 7.60991 21.2899 7.41455L20.8559 7.05579L20.8139 6.82136C20.7929 6.68993 20.7614 6.48036 20.7509 6.35249L20.7264 6.12161L20.8559 6.24593C20.9259 6.31342 21.1394 6.54075 21.3284 6.74677ZM27.2154 6.61889L27.1559 7.04159L26.7009 7.42165C26.4489 7.63123 26.2389 7.79462 26.2354 7.79107C26.2284 7.78396 26.2389 7.62767 26.2634 7.44652L26.3054 7.11618L26.7814 6.626C27.0439 6.35959 27.2644 6.15002 27.2679 6.16423C27.2714 6.18199 27.2504 6.38446 27.2154 6.61889ZM19.5959 6.77163C19.6309 7.03093 19.6519 7.2476 19.6449 7.25471C19.6274 7.27247 18.0839 7.63123 18.0244 7.63123C17.9894 7.63123 17.8039 6.67928 17.8354 6.65797C17.8774 6.626 19.4944 6.26014 19.5119 6.2779C19.5259 6.28855 19.5609 6.51233 19.5959 6.77163ZM29.3084 6.47681C29.7599 6.58693 30.1309 6.67928 30.1379 6.68638C30.1519 6.70059 30.0084 7.60636 29.9874 7.62767C29.9839 7.63478 29.6059 7.55308 29.1509 7.45007L28.3249 7.25826L28.3424 7.16946C28.3529 7.11973 28.3879 6.8995 28.4194 6.67928C28.4509 6.4626 28.4789 6.28145 28.4859 6.28145C28.4894 6.28145 28.8604 6.37025 29.3084 6.47681ZM24.4784 7.27602V7.77331H23.5194H22.5604L22.5429 7.65609C22.5289 7.5957 22.5114 7.37193 22.4974 7.1588L22.4729 6.77874H23.4774H24.4784V7.27602ZM25.4794 6.92792C25.4689 7.01317 25.4514 7.23695 25.4374 7.42521L25.4129 7.77331H25.0174H24.6184V7.27602V6.77874H25.0594H25.5004L25.4794 6.92792ZM20.7474 7.26537C20.8034 7.57439 20.8769 8.13917 20.8594 8.15693C20.8384 8.17469 19.2879 8.48372 19.2074 8.48372C19.1759 8.48372 19.0709 8.0184 19.0044 7.5815C19.0009 7.55308 20.4989 7.18012 20.6529 7.17301C20.7089 7.16946 20.7334 7.19432 20.7474 7.26537ZM28.1639 7.35417C28.6119 7.45362 28.9829 7.54242 28.9899 7.54953C29.0109 7.56374 28.8499 8.42688 28.8219 8.45885C28.7939 8.49082 27.2084 8.2031 27.1594 8.16048C27.1314 8.13562 27.2294 7.26181 27.2679 7.19432C27.2924 7.15525 27.2994 7.15525 28.1639 7.35417ZM21.4509 7.70937L21.7659 7.97222L21.8044 8.27059C21.8254 8.43754 21.8429 8.57607 21.8394 8.57607C21.8394 8.57962 21.7869 8.59383 21.7274 8.60448C21.6364 8.6258 21.5839 8.60093 21.3424 8.42688C21.1919 8.31677 21.0519 8.21376 21.0379 8.19955C21.0239 8.18534 20.9889 8.01485 20.9609 7.82304C20.9329 7.63123 20.9014 7.4181 20.8874 7.35061L20.8699 7.22984L21.0029 7.33996C21.0764 7.40034 21.2794 7.56729 21.4509 7.70937ZM27.0544 7.75555C27.0229 7.96157 26.9984 8.14272 26.9984 8.16048C26.9984 8.17469 26.8549 8.28835 26.6834 8.40912C26.3929 8.61159 26.3544 8.62935 26.2529 8.60093L26.1409 8.57252L26.1759 8.28125L26.2109 7.99353L26.6484 7.62767C26.9634 7.36482 27.0894 7.28313 27.0964 7.3222C27.1034 7.35417 27.0824 7.54953 27.0544 7.75555ZM18.8994 7.72713C18.9099 7.80172 18.9484 8.00419 18.9834 8.18179C19.0184 8.35584 19.0429 8.50503 19.0394 8.51213C19.0324 8.51568 18.8364 8.55831 18.6019 8.60448C18.3044 8.66132 18.1679 8.67553 18.1609 8.64711C18.1399 8.57607 18.0104 7.79107 18.0174 7.78396C18.0314 7.7662 18.7524 7.60281 18.8154 7.59926C18.8574 7.5957 18.8819 7.63478 18.8994 7.72713ZM29.5814 7.68095C29.7774 7.72713 29.9489 7.76975 29.9559 7.78041C29.9664 7.78752 29.9384 7.98998 29.8964 8.22797C29.8334 8.59383 29.8124 8.66132 29.7599 8.66132C29.6829 8.66132 28.9899 8.52634 28.9689 8.50858C28.9584 8.49437 29.0809 7.78752 29.1194 7.65609C29.1439 7.5815 29.1474 7.5815 29.5814 7.68095ZM24.4049 8.15338C24.3699 8.28835 24.3314 8.41623 24.3209 8.43754C24.3104 8.47306 24.1249 8.48372 23.5684 8.48372H22.8334L22.6934 8.19955L22.5534 7.91539H23.5124H24.4749L24.4049 8.15338ZM25.3884 7.9296C25.3884 7.9367 25.3324 8.06457 25.2659 8.21376L25.1469 8.48372H24.7899C24.4819 8.48372 24.4399 8.47661 24.4574 8.42688C24.4679 8.39847 24.5064 8.27059 24.5379 8.14272L24.5974 7.91539H24.9929C25.2099 7.91539 25.3884 7.92249 25.3884 7.9296ZM21.1884 8.47306L21.4159 8.64L21.2409 8.67197C21.1464 8.68973 20.8664 8.73946 20.6214 8.78919C20.3799 8.83537 20.1419 8.87444 20.0964 8.87089C20.0544 8.87089 19.8654 8.8105 19.6834 8.73591L19.3509 8.59738L19.5434 8.55831C20.0859 8.44464 20.7964 8.31322 20.8734 8.30967C20.9294 8.30611 21.0484 8.37005 21.1884 8.47306ZM27.8909 8.44819C28.2934 8.52634 28.6329 8.59028 28.6434 8.59383C28.6539 8.59383 28.4894 8.66487 28.2829 8.74657L27.9049 8.8993L27.6984 8.85313C27.5864 8.82471 27.2854 8.76788 27.0334 8.7217L26.5679 8.64L26.8094 8.47306C26.9389 8.38071 27.0719 8.30611 27.0999 8.30611C27.1314 8.30611 27.4884 8.37005 27.8909 8.44819ZM23.9464 8.96679L23.9569 9.32555L23.8449 9.35041C23.7854 9.36107 23.5684 9.37173 23.3619 9.37173C23.1589 9.37173 22.7249 9.39659 22.4029 9.42856C22.0774 9.46053 21.8079 9.47829 21.8009 9.47118C21.7799 9.44987 21.6994 8.76788 21.7169 8.75367C21.7659 8.70394 23.1344 8.59738 23.6384 8.60448L23.9359 8.60804L23.9464 8.96679ZM25.7349 8.68263C26.0324 8.71105 26.2809 8.73946 26.2879 8.74657C26.2949 8.75012 26.2809 8.92062 26.2564 9.12308L26.2144 9.48539L25.9869 9.46408C25.2834 9.39304 24.9824 9.37528 24.6184 9.37173C24.0199 9.36817 24.0584 9.40014 24.0584 8.95614V8.57962L24.6289 8.60448C24.9404 8.61869 25.4374 8.65421 25.7349 8.68263ZM19.8234 8.94548C19.8234 8.95614 19.7324 8.9881 19.6239 9.02007C19.4279 9.0698 19.4069 9.06625 18.9309 8.95258C18.6614 8.88865 18.4164 8.82826 18.3884 8.81405C18.3604 8.8034 18.5074 8.75722 18.7209 8.7146L19.1024 8.64L19.4629 8.78209C19.6624 8.86378 19.8234 8.93482 19.8234 8.94548ZM29.6584 8.8034C29.6584 8.81405 29.4274 8.8851 29.1439 8.95614L28.6259 9.08756L28.4089 9.02718C28.2864 8.99166 28.1884 8.95614 28.1884 8.94548C28.1884 8.93127 28.3459 8.85668 28.5419 8.78209L28.8954 8.64L29.2769 8.71105C29.4869 8.75012 29.6584 8.78919 29.6584 8.8034ZM21.5839 8.86734C21.5944 8.92417 21.6154 9.09111 21.6294 9.23675L21.6539 9.5067L21.3949 9.54578C20.9959 9.60971 20.1139 9.79442 19.8444 9.87256C19.7114 9.90808 19.5959 9.93295 19.5889 9.92584C19.5714 9.90808 19.4419 9.21544 19.4559 9.20123C19.4839 9.16926 20.4744 8.93838 20.9084 8.86378C21.5699 8.74657 21.5594 8.74657 21.5839 8.86734ZM27.0684 8.86023C27.4954 8.93482 28.2059 9.09467 28.4894 9.17636L28.5629 9.19768L28.4929 9.55998C28.4579 9.7589 28.4229 9.92584 28.4194 9.9294C28.4159 9.93295 28.2969 9.90453 28.1534 9.86901C27.7474 9.76245 27.1034 9.62392 26.7114 9.56709C26.5154 9.53512 26.3509 9.5067 26.3439 9.4996C26.3334 9.48894 26.3929 9.00587 26.4244 8.84602C26.4454 8.74657 26.4524 8.74657 27.0684 8.86023ZM25.0524 9.51736C25.0594 9.52446 25.0489 9.70206 25.0279 9.91164L24.9929 10.2953H24.0059H23.0154L22.9944 10.0999C22.9839 9.99333 22.9629 9.81928 22.9524 9.71272L22.9314 9.51736L23.1169 9.50315C23.3514 9.48184 25.0314 9.49605 25.0524 9.51736ZM22.8124 9.57419C22.8194 9.60971 22.8404 9.79442 22.8544 9.98268L22.8754 10.3308H22.7599C22.5744 10.3308 21.7799 10.4267 21.2829 10.5119C21.0344 10.551 20.8279 10.5794 20.8174 10.5723C20.7894 10.5439 20.6844 9.83704 20.7054 9.81573C20.7509 9.76955 21.9199 9.5955 22.5709 9.53867C22.6479 9.53157 22.7284 9.52446 22.7529 9.52091C22.7739 9.51736 22.8019 9.54222 22.8124 9.57419ZM26.0534 9.60616C26.5084 9.65944 27.2784 9.78731 27.3064 9.81573C27.3134 9.82283 27.2924 10.0004 27.2574 10.2065L27.1944 10.5865L27.0509 10.5617C26.5259 10.4729 25.7349 10.3663 25.4444 10.345L25.1014 10.3201L25.1224 10.21C25.1329 10.1496 25.1504 9.96847 25.1644 9.80863L25.1889 9.51381L25.3849 9.53512C25.4934 9.54578 25.7944 9.57774 26.0534 9.60616ZM20.5934 10.0892C20.6179 10.2313 20.6459 10.4089 20.6634 10.4835C20.6879 10.6007 20.6844 10.6185 20.6144 10.6327C20.5759 10.6434 20.3694 10.6895 20.1594 10.7393C19.9494 10.789 19.7709 10.8245 19.7674 10.8174C19.7464 10.7961 19.6064 10.0786 19.6204 10.0644C19.6344 10.0502 20.4604 9.84059 20.5129 9.83704C20.5339 9.83349 20.5689 9.94005 20.5934 10.0892ZM27.9364 9.94716C28.1814 10.0075 28.3844 10.0608 28.3879 10.0644C28.4124 10.0786 28.2444 10.8281 28.2199 10.8281C28.1814 10.8281 27.3414 10.6185 27.3274 10.6078C27.3064 10.583 27.4464 9.83349 27.4709 9.83349C27.4814 9.83349 27.6914 9.88322 27.9364 9.94716ZM24.9334 10.4373C25.5494 10.4764 26.1794 10.5475 26.7184 10.6363C27.2574 10.7286 28.1674 10.9382 28.2234 10.9879C28.2514 11.0128 28.3354 11.0518 28.4089 11.0767C28.5209 11.1122 28.5419 11.1335 28.5244 11.1975C28.5174 11.2365 28.4894 11.3822 28.4649 11.5136C28.4299 11.709 28.4089 11.7516 28.3669 11.7338C27.8874 11.542 26.6659 11.2792 25.7384 11.1655C23.7259 10.9204 21.2864 11.1229 19.7919 11.6628C19.7044 11.6912 19.6239 11.7054 19.6099 11.6912C19.5749 11.6486 19.4629 11.1087 19.4874 11.0874C19.5714 11.0021 20.4919 10.7748 21.3284 10.6363C22.5989 10.4231 23.7329 10.3627 24.9334 10.4373ZM14.5839 11.2437C14.6819 11.2969 14.8149 11.4106 14.8779 11.4958C14.9759 11.6273 14.9934 11.6806 14.9934 11.851C14.9934 12.2915 15.1754 12.7177 15.4834 13.0055C15.7249 13.2363 15.9594 13.3358 16.3094 13.3642C16.5964 13.3891 16.7749 13.3358 16.8379 13.2079C16.8834 13.112 17.0164 13.073 17.2439 13.0978C17.4014 13.112 17.4084 13.1618 17.2649 13.2825C17.1249 13.3997 17.1564 13.4566 17.3594 13.4566C17.5799 13.4566 17.8704 13.3429 18.1959 13.1298C18.5389 12.906 18.8014 12.7639 18.8329 12.7923C18.8644 12.8279 18.7454 12.9984 18.6089 13.1227C18.5389 13.1831 18.4934 13.2506 18.5074 13.2719C18.5179 13.2896 18.6089 13.3251 18.7069 13.35C19.0779 13.4424 19.4104 13.3216 19.9599 12.906C20.1769 12.7391 20.3694 12.6041 20.3834 12.6041C20.3974 12.6041 20.4009 12.6893 20.3904 12.7888C20.3659 13.0978 20.5584 13.318 20.9119 13.3926C21.0764 13.4282 21.1464 13.4246 21.3494 13.3749C21.4789 13.3394 21.6014 13.3003 21.6189 13.2825C21.6399 13.2612 21.6049 13.1902 21.5244 13.0978C21.3214 12.8563 21.3109 12.5686 21.4929 12.3057C21.6399 12.0926 21.8744 11.986 22.1894 11.986C22.4764 11.986 22.6059 12.0464 22.4029 12.0855C22.2279 12.1175 22.0389 12.3377 22.0109 12.5508C21.9584 12.8847 22.0774 13.1191 22.3714 13.2683C22.6094 13.3855 22.8369 13.3678 23.0889 13.2079C23.2079 13.1333 23.3024 13.1014 23.4039 13.1014C23.5719 13.1014 23.7994 13.1973 23.8974 13.3109C23.9744 13.3997 24.0514 13.4068 24.0829 13.3323C24.1109 13.2541 24.3279 13.1475 24.5169 13.1191C24.6569 13.0978 24.6954 13.1085 24.8599 13.2115C25.0174 13.3145 25.0804 13.3323 25.2624 13.3323C25.6509 13.3323 25.9064 13.112 25.9414 12.7497C25.9694 12.4265 25.7944 12.1352 25.5424 12.0855C25.3429 12.0464 25.4584 11.9896 25.7454 11.986C26.0814 11.9825 26.3019 12.0855 26.4664 12.3341C26.6414 12.6041 26.6169 12.8918 26.3929 13.1298C26.2739 13.2541 26.2844 13.2861 26.4734 13.3429C26.8724 13.4672 27.2259 13.4104 27.4149 13.1902C27.5409 13.041 27.5724 12.9344 27.5479 12.7426C27.5374 12.668 27.5444 12.6041 27.5584 12.6041C27.5759 12.6041 27.7544 12.7284 27.9539 12.8847C28.5349 13.3251 28.8429 13.4388 29.2174 13.3536C29.3224 13.3287 29.4204 13.2932 29.4344 13.2754C29.4449 13.2541 29.3854 13.1689 29.3014 13.0872C29.1684 12.9593 29.0634 12.7817 29.1194 12.7817C29.1789 12.7817 29.4274 12.9167 29.7109 13.1049C30.0679 13.3358 30.3759 13.4566 30.6244 13.4566C30.8099 13.4566 30.8274 13.3926 30.6734 13.279C30.4949 13.1511 30.5334 13.1014 30.8099 13.1014C31.0409 13.1014 31.0584 13.1049 31.1004 13.1973C31.1284 13.2577 31.1949 13.3145 31.2684 13.3394C31.4294 13.3997 31.8179 13.3678 32.0629 13.2754C32.2799 13.1902 32.5949 12.9131 32.7279 12.6858C32.8294 12.5046 32.9484 12.1459 32.9484 12.0038C32.9484 11.7694 33.2564 11.3431 33.4979 11.2508C34.1384 11.0057 34.6319 11.3111 34.7649 12.0429C34.8069 12.2737 34.8699 12.4158 35.0239 12.6218C35.2339 12.8989 35.6819 13.382 35.8534 13.5134L36.0249 13.6448L35.8674 13.8224C35.5594 14.1741 35.2829 14.8952 35.1919 15.6091C35.1709 15.7654 35.1149 16.4012 35.0659 17.0264C34.9749 18.2128 34.9154 18.7491 34.8769 18.8131C34.8594 18.8415 34.8104 18.8379 34.7159 18.8024C34.5304 18.7349 34.2819 18.7349 34.2574 18.7988C34.2469 18.8273 34.2784 18.909 34.3274 18.9871C34.4989 19.25 34.5304 19.3991 34.5584 20.1167C34.5794 20.7063 34.5934 20.82 34.6704 21.026C34.9644 21.8216 35.4964 22.3438 36.1649 22.4823C36.4729 22.5462 36.4659 22.5427 36.3994 22.6173C36.3294 22.6954 36.2174 22.6883 35.8709 22.5818C35.7134 22.532 35.6574 22.5285 35.6364 22.5605C35.5944 22.6279 35.6959 22.6812 35.9794 22.7487C36.1229 22.7842 36.2384 22.8198 36.2384 22.8304C36.2384 22.8411 36.2139 22.8837 36.1859 22.9228C36.1369 22.9867 36.1194 22.9867 35.9304 22.9441C35.6469 22.8801 35.6294 22.8801 35.6154 22.9441C35.6084 22.9903 35.6609 23.0151 35.8499 23.0648C36.0879 23.1217 36.0914 23.1252 36.0564 23.2105C36.0144 23.3064 35.9444 23.317 35.7344 23.2567C35.6399 23.2282 35.5909 23.2282 35.5629 23.2567C35.5034 23.317 35.5699 23.3632 35.7589 23.3987C35.9619 23.4343 35.9724 23.4449 35.9444 23.555L35.9234 23.6438L35.6889 23.5977C35.5104 23.5621 35.4439 23.5621 35.4264 23.5941C35.3704 23.6793 35.3844 23.6865 35.7414 23.7397C35.8569 23.7575 35.8884 23.7788 35.8744 23.8179C35.8639 23.8463 35.8534 23.8854 35.8534 23.9067C35.8534 23.9315 35.7869 23.9386 35.6539 23.9209C35.3004 23.8783 35.2759 23.8783 35.2759 23.9351C35.2759 23.9742 35.3494 24.0026 35.5314 24.0381C35.7344 24.0772 35.7834 24.0985 35.7764 24.1447C35.7659 24.1944 35.7099 24.2015 35.4054 24.1944C35.1324 24.1908 35.0484 24.2015 35.0484 24.237C35.0484 24.301 35.1254 24.3258 35.4194 24.3507C35.5629 24.3613 35.6784 24.3827 35.6784 24.3969C35.6784 24.4075 35.6574 24.4466 35.6329 24.4857C35.5909 24.5389 35.5349 24.5496 35.2899 24.5496C35.0974 24.546 34.9469 24.5247 34.8559 24.4892C34.6214 24.3898 34.5374 24.4786 34.7614 24.5922C34.8454 24.6348 34.9959 24.6633 35.2094 24.6739C35.4789 24.6881 35.5489 24.6775 35.7064 24.61C35.8184 24.5603 35.9129 24.4892 35.9584 24.4182C36.0284 24.3081 36.0284 24.3081 36.0319 24.3969C36.0459 24.6562 35.9199 24.887 35.6924 25.022C35.4929 25.1428 35.1359 25.1605 34.9364 25.0611C34.7474 24.9652 34.7089 25.0185 34.8489 25.1783C34.9434 25.2813 34.9784 25.3559 34.9959 25.5015C35.0099 25.6081 35.0344 25.7289 35.0519 25.7715C35.0904 25.871 35.0449 25.8781 34.9609 25.7822C34.8244 25.6294 34.7509 25.871 34.8559 26.1232C34.8839 26.1906 34.9679 26.3221 35.0449 26.4144C35.1884 26.5849 35.2584 26.7306 35.2584 26.8513C35.2584 26.9508 35.1044 26.9401 35.0204 26.83C34.8909 26.6631 34.8384 26.7305 34.8384 27.0644C34.8384 27.4125 34.9819 27.7074 35.3704 28.1514C35.7414 28.5812 35.8884 28.9044 35.8394 29.1744C35.8184 29.2809 35.8009 29.3022 35.7379 29.2916C35.6189 29.2738 35.5384 29.0749 35.5384 28.7907C35.5384 28.6593 35.5244 28.5527 35.5069 28.5527C35.4894 28.5527 35.4194 28.5776 35.3459 28.606C35.1709 28.6842 35.1184 28.6344 35.1184 28.3965C35.1184 27.9631 34.9049 27.6576 34.5724 27.6221L34.4709 27.6115L34.4674 28.0022C34.4639 28.3219 34.4464 28.4497 34.3659 28.7126C34.0754 29.6681 34.0649 30.1156 34.3134 30.6271C34.3834 30.7657 34.4079 30.8474 34.3799 30.858C34.3589 30.8651 34.2889 30.9149 34.2259 30.9717L34.1104 31.0747L33.9599 31.0037C33.7149 30.8935 33.6659 30.9077 33.5959 31.0996C33.5084 31.3553 33.4874 31.881 33.5574 32.087L33.6134 32.2575L33.4734 32.5168C33.3054 32.8259 33.1934 33.1384 33.1934 33.3018C33.1934 33.5327 33.1374 33.5753 32.7069 33.6854C32.1434 33.8311 31.9614 34.0371 31.7234 34.7901C31.5029 35.4863 31.2719 35.8131 30.7014 36.25C30.2359 36.6052 29.8579 36.8468 28.9409 37.3725C27.5899 38.1468 27.0509 38.5553 26.4209 39.2799L26.1234 39.6245L25.9414 39.5605C25.8399 39.525 25.6544 39.493 25.5284 39.493C25.3989 39.493 25.2169 39.4611 25.1084 39.422C25.0034 39.3829 24.8914 39.3545 24.8599 39.351C24.8249 39.351 24.7339 39.4717 24.6219 39.6706C24.4504 39.9655 24.1074 40.4805 24.0059 40.5871C23.9709 40.6261 23.9254 40.5835 23.7539 40.3384C23.6384 40.1786 23.4529 39.8873 23.3409 39.6955C23.1239 39.3225 23.1064 39.3119 22.8824 39.4078C22.8089 39.4398 22.5954 39.4788 22.4099 39.4966C22.2209 39.5108 22.0144 39.5499 21.9444 39.5783L21.8219 39.628L21.5489 39.3083C20.9329 38.5837 20.3344 38.1255 19.0184 37.3796C18.2204 36.9285 17.7619 36.6372 17.2789 36.2713C16.6454 35.7918 16.4739 35.5503 16.2184 34.7688C15.9804 34.0371 15.7809 33.8204 15.2244 33.6819C14.8149 33.5824 14.8009 33.5718 14.7519 33.2592C14.7204 33.0638 14.6609 32.8933 14.5209 32.6198L14.3354 32.2504L14.3879 32.0977C14.4509 31.9094 14.4334 31.3091 14.3564 31.0925C14.2934 30.9184 14.2164 30.9006 13.9924 31.0001L13.8314 31.0747L13.7159 30.9717C13.6529 30.9149 13.5794 30.8616 13.5549 30.8545C13.5234 30.8438 13.5374 30.7941 13.6039 30.6804C13.8594 30.24 13.8664 29.6574 13.6249 28.8724C13.4954 28.4391 13.4779 28.3538 13.4744 28.0022C13.4709 27.615 13.4709 27.6115 13.3869 27.6221C13.0509 27.6576 12.8234 27.9773 12.8234 28.4107C12.8234 28.6487 12.7954 28.6735 12.6099 28.6096C12.5259 28.5776 12.4454 28.5527 12.4314 28.5527C12.4139 28.5527 12.4034 28.67 12.4034 28.8085C12.4034 29.0749 12.3614 29.2099 12.2564 29.2774C12.1584 29.3377 12.1059 29.2489 12.1094 29.0394C12.1164 28.7836 12.2284 28.5705 12.5924 28.1301C12.9949 27.647 13.0754 27.48 13.0964 27.1035C13.1174 26.7448 13.0789 26.6808 12.9354 26.8229C12.8129 26.9437 12.6834 26.9508 12.6834 26.8371C12.6834 26.7341 12.7709 26.5743 12.9599 26.3292C13.0894 26.1658 13.1174 26.1018 13.1314 25.9455C13.1489 25.7253 13.1104 25.6827 12.9879 25.7822C12.8759 25.8745 12.8549 25.871 12.8899 25.7715C12.9074 25.7289 12.9319 25.6081 12.9459 25.5015C12.9669 25.3488 12.9984 25.2813 13.0894 25.1854C13.2399 25.0256 13.1979 24.9616 13.0089 25.0575C12.8444 25.1392 12.4279 25.1392 12.2704 25.0575C12.0394 24.9368 11.8469 24.6029 11.8959 24.4075L11.9169 24.3152L11.9799 24.4217C12.0149 24.4786 12.1059 24.5567 12.1794 24.5922C12.5154 24.7592 13.4674 24.6455 13.2854 24.4608C13.2574 24.4324 13.2014 24.443 13.0964 24.4857C12.9144 24.5603 12.3999 24.5745 12.3159 24.5034C12.2074 24.4111 12.2599 24.372 12.5189 24.3507C12.8444 24.3187 12.9284 24.2939 12.9039 24.2335C12.8899 24.1979 12.8164 24.1908 12.5469 24.2086C12.2389 24.2264 12.2039 24.2228 12.1794 24.166C12.1689 24.1305 12.1619 24.0985 12.1689 24.0914C12.1724 24.0878 12.2774 24.0665 12.3964 24.0452C12.6449 24.0061 12.6834 23.9884 12.6834 23.9138C12.6834 23.8676 12.6554 23.8641 12.5364 23.8854C12.4524 23.9031 12.3229 23.9138 12.2459 23.9173C12.1269 23.9173 12.1059 23.9031 12.0954 23.8392C12.0849 23.761 12.0884 23.7575 12.4139 23.7042C12.5469 23.6829 12.5609 23.6651 12.5154 23.5905C12.4979 23.5586 12.4489 23.5586 12.3509 23.5799C12.1164 23.6367 12.0289 23.6261 12.0079 23.5373C11.9799 23.4378 11.9834 23.4343 12.1829 23.3987C12.3684 23.3632 12.4384 23.317 12.3824 23.2602C12.3579 23.2353 12.2879 23.2353 12.1619 23.2673C11.9904 23.3064 11.9694 23.3028 11.9274 23.2424C11.8539 23.1394 11.8819 23.111 12.1059 23.0577C12.3404 23.0045 12.3929 22.9689 12.3264 22.9157C12.2949 22.8872 12.2179 22.8943 12.0604 22.9334C11.8434 22.9903 11.8364 22.9903 11.7874 22.9263C11.7594 22.8872 11.7384 22.8446 11.7384 22.8304C11.7384 22.8162 11.8469 22.7807 11.9799 22.7452C12.2564 22.6777 12.3474 22.6244 12.3054 22.5569C12.2809 22.5214 12.2459 22.5249 12.1304 22.564C12.0499 22.5924 11.9064 22.6315 11.8084 22.6493C11.6649 22.6777 11.6264 22.6706 11.5809 22.6208C11.5074 22.5391 11.5144 22.5143 11.6194 22.5143C11.7629 22.5143 12.2179 22.3438 12.4139 22.2159C12.6694 22.0525 12.9284 21.7506 13.0929 21.4238C13.3309 20.9585 13.3554 20.859 13.3834 20.1344C13.4149 19.4311 13.4534 19.2322 13.6109 18.9907C13.6634 18.9125 13.6949 18.8273 13.6844 18.7988C13.6599 18.7314 13.4324 18.7349 13.2434 18.8024C13.1594 18.8308 13.0859 18.8521 13.0824 18.845C13.0334 18.7953 12.9599 18.092 12.8409 16.5468C12.8094 16.1455 12.7604 15.673 12.7359 15.499C12.6274 14.7992 12.3754 14.1634 12.0639 13.8118L11.9099 13.6377L12.0219 13.5773C12.0849 13.5454 12.2214 13.4388 12.3229 13.3394C12.4279 13.2399 12.5014 13.1831 12.4944 13.2115C12.4664 13.2896 12.7604 13.6058 12.8199 13.5667C12.8619 13.5383 12.8444 13.4992 12.7359 13.3536C12.6589 13.2541 12.5854 13.1724 12.5714 13.1724C12.5154 13.1724 12.5469 13.1014 12.6484 12.9877C12.7079 12.9238 12.7499 12.8882 12.7464 12.906C12.7394 12.9273 12.8024 13.0055 12.8829 13.0801C12.9879 13.176 13.0509 13.2079 13.0929 13.1902C13.1454 13.1724 13.1279 13.1404 12.9774 12.9948L12.7989 12.8243L12.9214 12.668C12.9879 12.5828 13.0579 12.4869 13.0824 12.4549C13.1209 12.4016 13.1384 12.3981 13.2644 12.4442C13.4499 12.5117 13.6284 12.5117 13.6284 12.4478C13.6284 12.3945 13.5934 12.3803 13.3869 12.3377C13.2889 12.3164 13.2784 12.3057 13.3169 12.2631C13.3449 12.2382 13.4464 12.1991 13.5409 12.1743C13.6389 12.153 13.7369 12.1281 13.7614 12.121C13.7824 12.1139 13.8034 12.0855 13.8034 12.0535C13.8034 11.9931 13.7019 11.9825 13.5269 12.0358C13.4149 12.0677 13.4114 12.0677 13.4674 12.0038C13.5304 11.9327 13.7264 11.8404 13.8839 11.8084C14.0169 11.7765 14.0099 11.6806 13.8734 11.6806C13.7439 11.6806 13.5059 11.7942 13.3764 11.9221C13.2819 12.0109 13.2784 12.0109 13.2784 11.9363C13.2784 11.6592 13.5584 11.265 13.8244 11.162C14.0274 11.0874 14.3599 11.1229 14.5839 11.2437ZM15.7599 11.3218C15.6969 11.4461 15.6934 11.4852 15.7249 11.6663C15.7774 11.947 15.8824 12.1565 16.0504 12.2986C16.2429 12.4691 16.4564 12.5366 16.8519 12.5579C17.4784 12.5934 18.1749 12.4229 19.6764 11.8724C20.5654 11.5456 20.7089 11.5065 21.5209 11.3822C22.5254 11.2259 23.0539 11.3786 23.3339 11.9114C23.4424 12.1103 23.4389 12.5579 23.3304 12.7675C23.0959 13.2292 22.5499 13.35 22.2419 13.0161C22.1194 12.8847 22.0984 12.565 22.2034 12.3981C22.3399 12.1778 22.6479 12.1139 22.8299 12.2702C23.0434 12.4513 22.9384 12.835 22.6829 12.8101C22.5884 12.803 22.5674 12.7817 22.5604 12.7C22.5534 12.6467 22.5639 12.6041 22.5849 12.6041C22.6339 12.6041 22.6339 12.5082 22.5884 12.4798C22.5359 12.4478 22.4134 12.597 22.4134 12.6929C22.4134 12.8101 22.5604 12.9593 22.6759 12.9593C22.8089 12.9593 22.9664 12.8669 23.0259 12.7462C23.1449 12.5153 23.0644 12.2418 22.8194 12.0535C22.6374 11.9114 22.4659 11.8617 22.1649 11.8582C21.9514 11.8582 21.8674 11.8759 21.7204 11.9505C21.2689 12.1778 21.0974 12.6929 21.3459 13.073C21.3984 13.1511 21.4334 13.2221 21.4229 13.2292C21.4159 13.2363 21.3144 13.2541 21.1954 13.2648C20.9399 13.2932 20.7054 13.2186 20.5934 13.0765C20.5094 12.9664 20.5024 12.7497 20.5794 12.597C20.6179 12.5259 20.6214 12.4762 20.6004 12.4549C20.5234 12.3768 20.3204 12.4691 19.9809 12.732C19.5049 13.0978 19.2739 13.215 18.9764 13.2363C18.8434 13.2435 18.7384 13.2435 18.7384 13.2328C18.7384 13.2186 18.7839 13.1404 18.8434 13.0587C18.9729 12.8705 19.0149 12.6858 18.9379 12.6538C18.8364 12.6147 18.6054 12.7106 18.2239 12.9557C17.8774 13.176 17.5869 13.3145 17.4714 13.3145C17.4399 13.3145 17.4399 13.3038 17.4714 13.2719C17.5379 13.2044 17.5204 13.0765 17.4364 13.0161C17.3839 12.977 17.2789 12.9593 17.1179 12.9593C16.8694 12.9593 16.8589 12.9664 16.6769 13.1902C16.6349 13.2435 16.5824 13.2506 16.3619 13.2363C15.7949 13.2044 15.3924 12.8847 15.2069 12.327C15.0984 12.0073 15.1089 11.7409 15.2384 11.5172C15.3469 11.3218 15.5534 11.1833 15.7354 11.1833H15.8334L15.7599 11.3218ZM25.1644 11.2472C25.2064 11.2721 25.1854 11.2934 25.0699 11.3431C24.8739 11.4355 24.6289 11.6806 24.5379 11.8866C24.4294 12.121 24.4329 12.5544 24.5379 12.7923C24.5939 12.9131 24.6044 12.9664 24.5729 12.9735C24.5484 12.9806 24.4539 13.0055 24.3594 13.0268C24.2649 13.0481 24.1459 13.0978 24.0934 13.1369C23.9989 13.2044 23.9954 13.2044 23.9149 13.144C23.8204 13.0694 23.6734 13.009 23.5089 12.977C23.4459 12.9628 23.3934 12.9486 23.3934 12.9415C23.3934 12.938 23.4284 12.8563 23.4669 12.7639C23.5194 12.6432 23.5404 12.5188 23.5439 12.3377C23.5474 11.8937 23.3094 11.5172 22.8999 11.3253L22.7144 11.2365L22.9944 11.2152C23.3724 11.1833 25.0979 11.2081 25.1644 11.2472ZM32.4199 11.2543C32.5634 11.2969 32.7209 11.439 32.8084 11.6095C32.8679 11.7303 32.8679 11.7445 32.8049 12.0464C32.7244 12.4371 32.6439 12.6254 32.4724 12.8172C32.3009 13.009 32.1364 13.1156 31.8984 13.1866C31.6499 13.2612 31.3209 13.2612 31.2614 13.1866C31.0759 12.9522 31.0689 12.9522 30.7959 12.9664C30.4739 12.9806 30.3899 13.041 30.4529 13.2115L30.4949 13.318L30.3829 13.2932C30.2394 13.2648 29.9699 13.1262 29.7284 12.9593C29.4449 12.7639 29.2524 12.6751 29.1054 12.6645C28.9794 12.6574 28.9759 12.6609 28.9829 12.7781C28.9864 12.8492 29.0319 12.9628 29.0949 13.0552C29.1544 13.1404 29.2034 13.2186 29.2034 13.2328C29.2034 13.2435 29.0984 13.2435 28.9689 13.2363C28.6714 13.215 28.4229 13.0907 28.0134 12.7639C27.7124 12.5188 27.5444 12.4265 27.4219 12.4265C27.3204 12.4265 27.3029 12.4798 27.3659 12.6005C27.5619 12.9877 27.2469 13.3287 26.7534 13.2683C26.5259 13.2399 26.4909 13.2186 26.5574 13.1404C26.5854 13.1085 26.6344 13.0232 26.6659 12.9486C26.8199 12.5757 26.6029 12.121 26.1759 11.9256C26.0079 11.8475 25.5774 11.8368 25.3779 11.9079C25.0909 12.0144 24.8634 12.2702 24.8634 12.4904C24.8634 12.8527 25.2274 13.0907 25.4409 12.8705C25.5529 12.7604 25.5564 12.5934 25.4514 12.5188C25.3569 12.4513 25.2834 12.5011 25.3499 12.5828C25.4269 12.6751 25.3849 12.7994 25.2694 12.8101C25.1189 12.8279 25.0034 12.7 25.0034 12.5117C25.0034 12.3874 25.0209 12.3448 25.1119 12.2702C25.3044 12.1068 25.6404 12.1849 25.7664 12.4265C25.8399 12.5721 25.8049 12.9025 25.6999 13.0161C25.5809 13.1475 25.4479 13.2079 25.2834 13.2079C24.8739 13.2079 24.5554 12.7781 24.5904 12.2737C24.6079 12.0109 24.6814 11.8404 24.8564 11.6628C25.1714 11.336 25.5949 11.265 26.4034 11.3928C27.3624 11.5491 27.7614 11.6592 29.2384 12.1778C30.7679 12.7142 31.1564 12.7675 31.6744 12.5082C32.1609 12.2666 32.4514 11.6699 32.2484 11.3325C32.1854 11.2294 32.1854 11.2188 32.2414 11.2188C32.2729 11.2188 32.3569 11.233 32.4199 11.2543ZM11.5739 13.5489C11.7454 13.6377 12.0919 14.0178 12.2179 14.2593C12.3684 14.5435 12.5294 15.0408 12.5924 15.4102C12.6204 15.5771 12.6834 16.2414 12.7359 16.8843C12.8199 17.9783 12.9109 18.8308 12.9494 18.8983C12.9599 18.9125 12.9179 18.9907 12.8549 19.0688L12.7429 19.2109L12.6204 19.0795L12.4979 18.9445L12.4699 18.4827C12.3229 16.1064 12.2004 15.0976 12.0044 14.6536C11.8924 14.4014 11.6544 14.1066 11.4899 14.0249C11.1259 13.8331 10.7234 14.0533 10.7234 14.4405C10.7234 14.579 10.8459 14.7708 10.9334 14.7708C11.0209 14.7708 11.0244 14.7211 10.9334 14.6287C10.8494 14.5435 10.8424 14.3801 10.9159 14.2416C10.9754 14.1208 11.0314 14.0959 11.2344 14.0959C11.3604 14.0959 11.4129 14.1173 11.5249 14.2238C11.6859 14.3694 11.7244 14.4938 11.6684 14.6962C11.5599 15.1047 11.1539 15.2717 10.7374 15.0763C10.4609 14.9449 10.3384 14.7247 10.3384 14.3481C10.3384 13.8118 10.6709 13.4992 11.2414 13.4921C11.3779 13.4921 11.5039 13.5134 11.5739 13.5489ZM37.2639 13.6484C37.4984 13.7656 37.6279 13.9432 37.6804 14.2238C37.7749 14.746 37.4459 15.1935 36.9629 15.1971C36.6094 15.1971 36.3784 14.9911 36.3504 14.643C36.3329 14.4227 36.3854 14.3126 36.5639 14.2025C36.8194 14.0427 37.0994 14.1599 37.1379 14.4369C37.1519 14.5577 37.1414 14.6003 37.0784 14.6643C36.9769 14.7673 37.0084 14.8561 37.1274 14.8028C37.3864 14.682 37.3199 14.1634 37.0259 14.0391C36.7599 13.929 36.5429 13.9965 36.2944 14.2771C36.0914 14.5044 35.9164 14.8596 35.8219 15.2504C35.7309 15.6056 35.6329 16.593 35.5559 17.8611C35.4929 18.9232 35.4824 19.012 35.4334 18.98C35.4159 18.9693 35.3599 19.0191 35.3074 19.0901L35.2094 19.218L35.0974 19.0795C35.0344 19.0049 34.9889 18.9374 34.9959 18.9232C35.0309 18.8663 35.1289 17.957 35.2059 16.9376C35.2549 16.3018 35.3214 15.6304 35.3494 15.4457C35.4194 15.023 35.5769 14.5364 35.7309 14.2558C35.8639 14.0107 36.1159 13.7052 36.1859 13.7052C36.2104 13.7052 36.3154 13.6661 36.4204 13.6129C36.6654 13.4956 36.9839 13.5063 37.2639 13.6484ZM11.7664 18.2163C11.7454 18.2945 11.7419 18.4152 11.7524 18.4863C11.7839 18.6532 12.0079 18.8947 12.2599 19.0368C12.3684 19.1008 12.5049 19.2038 12.5679 19.2677C12.6694 19.3778 12.6764 19.3956 12.6414 19.5199C12.6239 19.5909 12.6169 19.7224 12.6274 19.8076C12.6449 19.939 12.6414 19.9604 12.5924 19.9426C12.5609 19.9319 12.4944 19.9213 12.4419 19.9213C12.3649 19.9213 12.3369 19.8964 12.2844 19.7792C12.1969 19.5767 12.0499 19.4844 11.7909 19.4666C11.6194 19.456 11.5669 19.4631 11.5284 19.5128C11.4829 19.5696 11.4864 19.5803 11.5564 19.63C11.7139 19.733 11.6054 19.9213 11.3849 19.9213C11.1504 19.9213 11.0384 19.6691 11.1609 19.424C11.2169 19.3139 11.3744 19.2109 11.4864 19.2109C11.5949 19.2109 11.5984 19.1754 11.5039 18.9835C11.3394 18.6603 11.3919 18.3264 11.6299 18.1595C11.6999 18.1133 11.7664 18.0742 11.7769 18.0742C11.7909 18.0742 11.7839 18.1382 11.7664 18.2163ZM36.3784 18.2021C36.6059 18.4117 36.6234 18.6106 36.4554 19.0049C36.3784 19.1789 36.3854 19.2109 36.4904 19.2109C36.6689 19.2109 36.8684 19.4169 36.8684 19.6016C36.8684 19.7259 36.7669 19.8822 36.6759 19.9071C36.5429 19.939 36.4169 19.8929 36.3714 19.7934C36.3329 19.7117 36.3399 19.694 36.4134 19.6371C36.4694 19.5945 36.4869 19.5554 36.4694 19.5128C36.4519 19.4595 36.4099 19.4524 36.2104 19.4666C35.9269 19.4808 35.7834 19.5696 35.6924 19.7792C35.6364 19.9035 35.6154 19.9213 35.5174 19.9213C35.4544 19.9213 35.3809 19.9319 35.3529 19.9426C35.3109 19.9568 35.3039 19.9319 35.3179 19.8076C35.3249 19.7224 35.3214 19.5945 35.3039 19.5164C35.2759 19.3956 35.2864 19.3672 35.3704 19.2748C35.4229 19.218 35.5594 19.1221 35.6749 19.0652C36.0984 18.8521 36.2874 18.5573 36.2139 18.2341C36.1929 18.1453 36.1929 18.0742 36.2069 18.0742C36.2244 18.0742 36.3014 18.1311 36.3784 18.2021ZM13.4079 19.1079C13.3029 19.3139 13.2994 19.3423 13.2749 20.0065C13.2539 20.5997 13.2399 20.7205 13.1629 20.9407C12.8969 21.7222 12.4209 22.1981 11.7489 22.358C11.0069 22.5356 10.3384 22.0916 10.3384 21.4345C10.3419 20.9691 10.6149 20.6672 11.0279 20.6672C11.5774 20.6672 11.8504 21.3812 11.4479 21.7648C11.2589 21.9424 10.8914 21.8891 10.7759 21.6618C10.5869 21.2924 10.9544 20.8874 11.1854 21.2036C11.2449 21.2817 11.2484 21.3101 11.2134 21.3776C11.1924 21.4202 11.1819 21.4806 11.1959 21.5126C11.2169 21.5659 11.2274 21.5623 11.2869 21.4877C11.3954 21.3528 11.3744 21.1894 11.2309 21.0615C11.0139 20.8697 10.7479 20.9514 10.6359 21.2498C10.5169 21.5588 10.6464 21.8216 11.0034 22.0099C11.2064 22.1164 11.2554 22.1271 11.4584 22.1164C11.7174 22.1022 11.9309 22.0099 12.1549 21.8181C12.4524 21.5588 12.5224 21.232 12.3579 20.8697C12.2599 20.6495 12.1549 20.5642 11.9484 20.5358C11.8434 20.5216 11.8084 20.5003 11.8084 20.4505C11.8084 20.3688 12.0674 20.1451 12.1969 20.1167C12.2529 20.1024 12.3054 20.0776 12.3159 20.0598C12.3544 19.9994 12.4594 20.0278 12.6274 20.138C12.8304 20.2765 12.8759 20.2445 12.8024 20.0278C12.7184 19.7899 12.7534 19.4631 12.8829 19.2535C12.9914 19.0724 13.2609 18.8947 13.4219 18.8912H13.5129L13.4079 19.1079ZM34.8384 19.012C35.1254 19.2038 35.2584 19.6549 35.1429 20.0385C35.0974 20.1841 35.0974 20.2126 35.1394 20.2303C35.1639 20.241 35.2374 20.2055 35.2969 20.1557C35.4614 20.0136 35.5489 20.0065 35.7764 20.1167C36.1159 20.2765 36.2979 20.5251 36.0809 20.5251C35.9199 20.5251 35.7554 20.621 35.6539 20.7773C35.5664 20.9123 35.5559 20.9585 35.5559 21.2355C35.5559 21.5162 35.5629 21.5552 35.6539 21.6724C35.7729 21.8323 36.0179 22.0063 36.2244 22.0774C36.5569 22.191 37.0399 22.049 37.2429 21.779C37.4249 21.541 37.3689 21.1645 37.1344 21.0153C36.8369 20.8271 36.4484 21.1929 36.6444 21.4771C36.6899 21.5446 36.7109 21.5517 36.7494 21.5162C36.7844 21.4877 36.7914 21.4629 36.7634 21.4345C36.7459 21.4167 36.7284 21.3599 36.7284 21.3101C36.7284 21.0615 37.0504 21.0082 37.1659 21.2391C37.3724 21.6405 36.9419 22.0383 36.5604 21.8039C36.3714 21.6867 36.3154 21.5517 36.3329 21.2782C36.3679 20.8129 36.6129 20.5713 37.0049 20.6104C37.3969 20.6459 37.6349 20.9443 37.6384 21.3954C37.6384 21.9637 37.2814 22.3331 36.6759 22.39C35.9654 22.461 35.2899 22.0383 34.9399 21.3066C34.7264 20.859 34.6949 20.7134 34.6809 20.0598C34.6704 19.4702 34.6354 19.2819 34.5024 19.0368L34.4184 18.8805L34.5619 18.9019C34.6389 18.9125 34.7649 18.9622 34.8384 19.012ZM11.8329 21.6618C11.8819 21.7009 11.9449 21.7328 11.9729 21.7328C12.0569 21.7328 11.9869 21.8003 11.8084 21.8927C11.7139 21.9424 11.5809 21.9815 11.5109 21.9815H11.3884L11.5284 21.8536C11.6019 21.7861 11.6754 21.6973 11.6859 21.6582C11.7139 21.573 11.7244 21.573 11.8329 21.6618ZM36.4414 21.9744C36.3399 21.985 36.0179 21.8607 35.9549 21.7826C35.9234 21.7435 35.9304 21.7328 35.9969 21.7328C36.0424 21.7328 36.1089 21.708 36.1439 21.6795C36.2034 21.6369 36.2244 21.6476 36.3714 21.7968L36.5359 21.9637L36.4414 21.9744ZM35.8884 24.2796C35.8499 24.34 35.8499 24.34 35.8674 24.2796C35.8779 24.2441 35.8884 24.1944 35.8919 24.1731C35.8919 24.1411 35.8989 24.1411 35.9094 24.1731C35.9199 24.1979 35.9094 24.2441 35.8884 24.2796ZM12.8374 25.3843C12.7989 25.6223 12.7569 25.7644 12.7044 25.8354C12.6029 25.9704 12.6344 26.0059 12.8234 25.9882C12.9214 25.9775 12.9984 25.9846 12.9984 26.0024C12.9984 26.0592 12.9249 26.18 12.7709 26.3718C12.6869 26.4748 12.6134 26.5885 12.6029 26.624C12.5504 26.8122 12.5469 26.8868 12.5784 26.9721C12.6099 27.0573 12.6309 27.068 12.7464 27.0538C12.8164 27.0431 12.9039 27.0254 12.9424 27.0076C13.0019 26.9792 13.0054 26.9898 12.9844 27.1532C12.9424 27.4303 12.8199 27.6541 12.4769 28.0732C12.0814 28.5527 12.0079 28.7019 11.9904 29.0358C11.9764 29.2596 11.9869 29.3022 12.0499 29.3662C12.2564 29.5757 12.5399 29.2774 12.5434 28.8511C12.5434 28.741 12.5469 28.741 12.6939 28.7552C12.8934 28.7801 12.9249 28.7303 12.9599 28.3858C12.9914 28.0626 13.0649 27.8992 13.2084 27.8246C13.2644 27.7962 13.3169 27.7713 13.3239 27.7713C13.3344 27.7713 13.3484 27.9347 13.3554 28.1336C13.3694 28.432 13.3974 28.5776 13.5094 28.9257C13.6389 29.3306 13.6459 29.3733 13.6459 29.8137C13.6459 30.24 13.6389 30.2897 13.5514 30.478C13.5024 30.5881 13.3799 30.787 13.2819 30.9184C13.1244 31.128 13.1034 31.1777 13.1034 31.3269C13.1034 31.508 13.1874 31.643 13.2959 31.643C13.3799 31.643 13.4674 31.469 13.5059 31.2203L13.5444 30.9894L13.6879 31.1244L13.8349 31.2558L13.9329 31.1848C13.9854 31.1457 14.0729 31.1031 14.1219 31.0925C14.2094 31.0711 14.2164 31.0782 14.2584 31.2558C14.2829 31.3553 14.3039 31.5613 14.3039 31.7105C14.3039 32.0231 14.2199 32.2256 13.9539 32.5701C13.6144 33.0141 13.5619 33.5256 13.8594 33.5256C14.0169 33.5256 14.0729 33.419 14.1009 33.0745C14.1219 32.7939 14.2024 32.389 14.2409 32.389C14.2654 32.389 14.4614 32.7584 14.5419 32.9573C14.6154 33.1349 14.6224 33.2095 14.6224 33.792C14.6259 34.3639 14.6329 34.4456 14.6924 34.5379C14.7624 34.648 14.8499 34.7297 14.8989 34.7333C14.9514 34.7333 14.9199 34.609 14.8464 34.5273C14.7729 34.4527 14.7659 34.3994 14.7554 34.0513C14.7414 33.6819 14.7449 33.6606 14.8079 33.6854C14.8849 33.7174 15.0844 33.7814 15.3539 33.8595C15.5884 33.9305 15.8019 34.1046 15.9104 34.3177C15.9489 34.3959 16.0504 34.6658 16.1344 34.9216C16.3724 35.6249 16.5859 35.9161 17.2159 36.3921C17.7269 36.7793 17.9194 36.9 19.1584 37.6105C20.0124 38.1006 20.3869 38.3635 20.9364 38.8537C21.1219 39.0171 21.5944 39.5392 21.7309 39.7275C21.7694 39.7807 21.7869 39.7807 21.9724 39.7097C22.0914 39.6671 22.2524 39.6351 22.3714 39.6351C22.5464 39.6351 22.7144 39.6031 22.9944 39.5108C23.0539 39.493 23.0959 39.5392 23.2849 39.8589C23.5579 40.3171 23.8799 40.7469 23.9604 40.7576C23.9954 40.7611 24.0689 40.7114 24.1284 40.6439C24.2579 40.4912 24.6044 39.9726 24.7549 39.6955C24.8179 39.5854 24.8809 39.493 24.8984 39.493C24.9124 39.493 24.9824 39.5179 25.0524 39.5463C25.1259 39.5783 25.3114 39.6102 25.4689 39.6209C25.6264 39.6316 25.8504 39.6742 25.9624 39.7133L26.1724 39.7843L26.2774 39.6493C26.4769 39.3865 27.1209 38.74 27.4009 38.5162C27.7929 38.2072 28.1639 37.9657 28.9759 37.5039C30.2079 36.8006 30.7434 36.4347 31.1844 35.9943C31.5239 35.6497 31.6464 35.4437 31.8214 34.8896C31.8984 34.6587 31.9894 34.403 32.0314 34.3213C32.1399 34.1046 32.3534 33.927 32.5879 33.863C32.8189 33.7991 33.0429 33.7245 33.1339 33.6854C33.1969 33.6606 33.2004 33.6783 33.1864 34.0513C33.1759 34.4065 33.1689 34.4527 33.0919 34.5344C33.0044 34.6303 33.0114 34.7475 33.1024 34.712C33.1339 34.7013 33.1934 34.6338 33.2354 34.5628C33.3124 34.4385 33.3159 34.3923 33.3194 33.8275C33.3194 33.11 33.3229 33.0958 33.5924 32.5701L33.6904 32.3747L33.7429 32.4742C33.7709 32.531 33.8129 32.7655 33.8374 32.9999C33.8829 33.4546 33.9179 33.5256 34.0894 33.5256C34.3764 33.5256 34.3169 32.9679 33.9879 32.5594C33.9179 32.4742 33.8164 32.3108 33.7569 32.1971C33.6589 32.016 33.6484 31.9556 33.6484 31.6892C33.6484 31.5258 33.6659 31.3198 33.6869 31.231C33.7254 31.0818 33.7359 31.0711 33.8199 31.0925C33.8689 31.1031 33.9564 31.1457 34.0089 31.1848L34.1069 31.2558L34.2539 31.1244L34.3974 30.9894L34.4394 31.2239C34.4919 31.508 34.5339 31.5933 34.6354 31.6288C34.7509 31.6643 34.8384 31.5329 34.8384 31.3198C34.8384 31.1706 34.8174 31.1244 34.6599 30.9149C34.5619 30.7834 34.4394 30.5881 34.3904 30.478C34.3029 30.2897 34.2959 30.2435 34.2994 29.8137C34.2994 29.3768 34.3064 29.3271 34.4324 28.9435C34.5409 28.6096 34.5689 28.4675 34.5829 28.1514C34.5934 27.9418 34.6179 27.7713 34.6354 27.7713C34.7089 27.7713 34.8664 27.9169 34.9224 28.0341C34.9539 28.1016 34.9784 28.2366 34.9784 28.3361C34.9784 28.4391 35.0029 28.5776 35.0309 28.6487C35.0834 28.773 35.0869 28.773 35.2549 28.7588C35.4019 28.7446 35.4229 28.7481 35.4089 28.8049C35.3984 28.8369 35.4089 28.9541 35.4334 29.0642C35.4964 29.3768 35.7274 29.5331 35.8884 29.3697C35.9444 29.3129 35.9584 29.2525 35.9584 29.0571C35.9584 28.741 35.8429 28.503 35.4894 28.091C35.1534 27.7038 35.0239 27.48 34.9749 27.2243C34.9539 27.1106 34.9469 27.0112 34.9539 27.0005C34.9644 26.9934 35.0029 27.0005 35.0414 27.0218C35.1639 27.0858 35.3214 27.068 35.3669 26.9863C35.4439 26.8336 35.3494 26.5707 35.1219 26.3008C34.9924 26.148 34.9189 26.0095 34.9504 25.974C34.9574 25.9669 35.0134 25.974 35.0694 25.9917C35.1254 26.0059 35.2059 26.0095 35.2514 25.9917L35.3284 25.9633L35.2409 25.8354C35.1954 25.7644 35.1464 25.633 35.1359 25.5406C35.1219 25.4483 35.1044 25.3453 35.0939 25.3097C35.0799 25.2565 35.1079 25.2493 35.3074 25.2493H35.5384V25.3985C35.5384 25.6152 35.5874 25.7679 35.8254 26.2936C36.2909 27.3273 36.4764 27.924 36.5534 28.6558C36.6724 29.7356 36.4204 30.9646 35.8569 32.087L35.6994 32.4067L35.6749 32.0302C35.6609 31.8206 35.6154 31.508 35.5734 31.3375C35.4999 31.0392 35.4439 30.8971 35.1254 30.1689C34.9854 29.8457 34.9084 29.5615 34.9084 29.3697C34.9084 29.2845 34.8944 29.2632 34.8349 29.2632C34.7649 29.2632 34.7614 29.2738 34.7824 29.4798C34.8104 29.7214 34.9329 30.0979 35.0904 30.4176C35.3844 31.0108 35.5139 31.4974 35.5559 32.2007L35.5839 32.6021L35.4544 32.8223C35.3179 33.0496 34.9294 33.5824 34.7194 33.8275L34.5969 33.9696L34.5934 33.4901C34.5934 32.9857 34.5584 32.6518 34.4674 32.3001C34.4079 32.0622 34.3764 32.016 34.2994 32.0444C34.2504 32.0622 34.2504 32.0799 34.2959 32.19C34.4009 32.4422 34.4639 32.9608 34.4639 33.5611V34.1437L34.1174 34.4776C33.1479 35.4082 32.5109 35.838 30.2044 37.1132C28.3949 38.1148 28.0099 38.3528 27.5304 38.7755C27.1349 39.1236 26.8059 39.5996 26.6134 40.0969C26.5714 40.2034 26.5329 40.2993 26.5259 40.3029C26.5189 40.31 26.3579 40.2461 26.1689 40.1573C25.9799 40.0685 25.7594 39.9761 25.6754 39.9512C25.5354 39.9122 25.5214 39.9122 25.4374 39.9939C25.3884 40.04 25.2764 40.2319 25.1854 40.4166C25.0979 40.6013 25.0209 40.7611 25.0139 40.7682C25.0104 40.7753 24.9404 40.7078 24.8599 40.619C24.7829 40.5267 24.6884 40.4521 24.6569 40.4521C24.6149 40.4521 24.4854 40.6119 24.2894 40.8961C24.1214 41.1412 23.9709 41.3401 23.9534 41.3401C23.9359 41.3401 23.8029 41.1589 23.6594 40.9387C23.5159 40.7149 23.3724 40.516 23.3444 40.4912C23.2674 40.4237 23.1729 40.4698 23.0574 40.6297C23.0014 40.7078 22.9454 40.7718 22.9349 40.7718C22.9244 40.7718 22.8649 40.6439 22.8019 40.4876C22.7354 40.3313 22.6269 40.136 22.5534 40.0543L22.4239 39.9051L22.2699 39.9512C22.1859 39.9761 21.9619 40.0685 21.7694 40.1573C21.5804 40.2425 21.4194 40.31 21.4124 40.3029C21.4089 40.2958 21.3494 40.1644 21.2864 40.0081C20.9959 39.3083 20.5549 38.8146 19.7499 38.2782C19.3579 38.0189 18.9239 37.7667 17.6884 37.0883C15.4659 35.8628 14.7799 35.4011 13.8279 34.4811L13.4814 34.1472V33.5966C13.4814 32.9928 13.5304 32.5452 13.6249 32.254C13.6809 32.0906 13.6809 32.0622 13.6389 32.0444C13.6109 32.0337 13.5724 32.0444 13.5549 32.0728C13.4464 32.2433 13.3484 32.9218 13.3484 33.5078L13.3449 33.9696L13.2049 33.8098C13.0369 33.618 12.5819 32.9963 12.4699 32.7974C12.3929 32.666 12.3859 32.6198 12.3929 32.2433C12.4034 31.6075 12.5119 31.1635 12.8164 30.5064C13.0299 30.0411 13.1349 29.7249 13.1629 29.4763C13.1804 29.2738 13.1804 29.2632 13.1069 29.2632C13.0439 29.2632 13.0334 29.2845 13.0334 29.391C13.0334 29.6042 12.9319 29.9345 12.7289 30.382C12.3964 31.1067 12.2669 31.6111 12.2599 32.1936L12.2564 32.4422L12.0359 31.984C11.7769 31.4548 11.5669 30.8296 11.4514 30.2542C11.3394 29.6858 11.3394 28.6664 11.4514 28.1514C11.5529 27.6825 11.7279 27.1603 11.9484 26.6666C12.3719 25.7289 12.3789 25.704 12.3894 25.4625C12.3929 25.3346 12.3999 25.2316 12.3999 25.2316C12.4034 25.2316 12.5049 25.2387 12.6309 25.2422L12.8619 25.2565L12.8374 25.3843ZM13.3484 31.3553C13.3029 31.5258 13.2574 31.5436 13.2259 31.3944C13.2084 31.3198 13.2259 31.2487 13.2854 31.1422L13.3659 30.993L13.3764 31.1031C13.3834 31.1635 13.3694 31.2772 13.3484 31.3553ZM34.7124 31.2416C34.7404 31.3269 34.7054 31.5009 34.6634 31.5009C34.6214 31.5009 34.5969 31.4121 34.5724 31.1884L34.5479 30.9859L34.6179 31.0747C34.6564 31.1244 34.6984 31.199 34.7124 31.2416ZM13.9609 33.2663C13.9469 33.3551 13.9224 33.3835 13.8664 33.3835C13.7999 33.3835 13.7964 33.3658 13.8104 33.213C13.8209 33.1207 13.8559 32.9821 13.8944 32.904L13.9574 32.7619L13.9714 32.9573C13.9784 33.0638 13.9749 33.2059 13.9609 33.2663ZM34.0684 32.9289C34.1244 33.0674 34.1524 33.213 34.1419 33.3373C34.1349 33.419 34.0334 33.3871 33.9984 33.2912C33.9599 33.1953 33.9494 32.7797 33.9844 32.7797C33.9949 32.7797 34.0299 32.8472 34.0684 32.9289Z" fill="white"/>
    <path d="M33.9984 11.7516C34.0194 11.7907 34.0684 11.8226 34.1069 11.8226C34.1909 11.8226 34.4254 11.9398 34.4849 12.0109C34.5199 12.0571 34.5094 12.0606 34.3869 12.0286C34.3099 12.0073 34.2224 12.0002 34.1909 12.0109C34.0999 12.05 34.1734 12.1317 34.3134 12.153C34.3869 12.1636 34.4989 12.1956 34.5619 12.2276C34.6389 12.2666 34.6879 12.2737 34.7159 12.2489C34.8804 12.1103 34.3834 11.6805 34.0614 11.6805C33.9704 11.6805 33.9634 11.6877 33.9984 11.7516Z" fill="white"/>
    <path d="M34.6914 12.3022C34.6809 12.3164 34.5934 12.3341 34.5024 12.3483C34.3799 12.3661 34.3274 12.391 34.3204 12.4371C34.3099 12.4833 34.3309 12.4975 34.4254 12.494C34.5899 12.494 34.7859 12.4194 34.7859 12.359C34.7859 12.3057 34.7264 12.2702 34.6914 12.3022Z" fill="white"/>
    <path d="M12.9879 12.6538C12.9669 12.7106 13.2924 12.906 13.3484 12.8705C13.4114 12.8314 13.3834 12.7888 13.2294 12.6964C13.0509 12.5899 13.0124 12.5828 12.9879 12.6538Z" fill="white"/>
    <path d="M34.7089 12.7C34.6249 12.7462 34.5584 12.7994 34.5584 12.8172C34.5584 12.8918 34.6389 12.8847 34.7999 12.7994C34.9259 12.7391 34.9714 12.6964 34.9574 12.6574C34.9294 12.5863 34.8839 12.5934 34.7089 12.7Z" fill="white"/>
    <path d="M34.9434 13.0126C34.8209 13.1404 34.8034 13.1724 34.8489 13.1937C34.9189 13.2186 35.2234 12.9628 35.1989 12.8989C35.1674 12.8172 35.1009 12.8492 34.9434 13.0126Z" fill="white"/>
    <path d="M35.2864 13.2719C35.1044 13.4743 35.0694 13.5489 35.1429 13.5773C35.1779 13.5915 35.2129 13.5809 35.2339 13.5454C35.2514 13.5134 35.3109 13.4317 35.3704 13.3678C35.4439 13.279 35.4649 13.2292 35.4404 13.1902C35.4159 13.1404 35.3914 13.1546 35.2864 13.2719Z" fill="white"/>
    <path d="M12.2074 13.5098C12.1934 13.5418 12.2319 13.6164 12.2984 13.691C12.3579 13.762 12.4349 13.8757 12.4664 13.9396C12.5259 14.0711 12.5364 14.0746 12.6099 14.0284C12.6659 13.9929 12.6379 13.9361 12.4104 13.6235C12.2774 13.4459 12.2389 13.4246 12.2074 13.5098Z" fill="white"/>
    <path d="M35.5559 13.6058C35.4859 13.691 35.3984 13.8153 35.3599 13.8899C35.3004 14.0071 35.3004 14.0213 35.3529 14.0391C35.3844 14.0533 35.4124 14.0569 35.4124 14.0533C35.4229 14.032 35.6959 13.6235 35.7309 13.5773C35.7519 13.5454 35.7519 13.517 35.7274 13.4921C35.6994 13.4637 35.6504 13.4956 35.5559 13.6058Z" fill="white"/>
    <path d="M14.0554 13.6413C14.0029 13.6946 13.9959 27.6505 14.0484 28.4391C14.1744 30.3003 14.7099 31.913 15.7109 33.4368C17.2614 35.7989 19.6764 37.3654 22.4729 37.8271C23.0469 37.923 24.3559 37.9585 24.9579 37.8946C27.3624 37.646 29.4729 36.6159 31.1494 34.8683C32.4724 33.4865 33.4034 31.707 33.7709 29.8528C33.9704 28.8476 33.9634 29.1069 33.9634 21.0295V13.5987H24.0304C16.3514 13.5987 14.0869 13.6093 14.0554 13.6413ZM27.2784 16.5788C27.2784 16.6179 23.9954 19.7792 23.9534 19.7792C23.9254 19.7792 20.5934 16.5895 20.5934 16.5646C20.5934 16.5539 22.0984 16.5468 23.9359 16.5468C25.9799 16.5468 27.2784 16.5575 27.2784 16.5788ZM22.0949 18.9232C22.1614 18.9551 22.2629 19.0404 22.3224 19.115C22.4659 19.2961 22.4939 19.6229 22.3819 19.8431C22.1579 20.2871 21.4999 20.3262 21.2304 19.9142C21.1044 19.7188 21.0834 19.4204 21.1849 19.218C21.3564 18.877 21.7414 18.7491 22.0949 18.9232ZM26.4454 18.9303C26.9109 19.1683 26.8969 19.9 26.4209 20.1344C25.9694 20.3546 25.4584 20.0349 25.4584 19.5306C25.4584 19.1967 25.6369 18.9516 25.9379 18.8734C26.1269 18.8202 26.2599 18.8379 26.4454 18.9303ZM21.8814 21.6902C21.8709 21.7222 18.5809 24.8941 18.5494 24.9048C18.5319 24.9119 15.1684 21.6938 15.1684 21.6724C15.1684 21.6653 16.6804 21.6618 18.5319 21.6618C20.3799 21.6618 21.8884 21.676 21.8814 21.6902ZM32.6964 21.6973C32.6929 21.7151 31.9369 22.4503 31.0234 23.3312L29.3609 24.9297L29.0984 24.6668C28.9549 24.5247 28.2059 23.8037 27.4359 23.0648C26.6659 22.326 26.0324 21.708 26.0254 21.6902C26.0184 21.676 27.5199 21.6618 29.3609 21.6618C31.5484 21.6618 32.7069 21.6724 32.6964 21.6973ZM16.7329 24.063C16.8869 24.1553 17.0584 24.4395 17.0584 24.6064C17.0584 24.8835 16.8974 25.1428 16.6559 25.2529C16.1204 25.5015 15.5464 24.9865 15.7354 24.4288C15.8824 23.9955 16.3304 23.8321 16.7329 24.063ZM21.0169 24.0274C21.1429 24.0914 21.3249 24.3081 21.3459 24.4253C21.3599 24.4786 21.3739 24.5496 21.3809 24.5816C21.3844 24.6171 21.3774 24.713 21.3564 24.7947C21.2304 25.3737 20.4744 25.5086 20.1384 25.0114C19.9914 24.7911 20.0089 24.4217 20.1769 24.2015C20.3589 23.9671 20.7474 23.8889 21.0169 24.0274ZM27.5304 24.0452C27.9679 24.269 27.9889 24.9226 27.5689 25.2138C27.3064 25.3985 26.8654 25.3239 26.6729 25.0646C26.5189 24.8586 26.4874 24.5247 26.6064 24.3045C26.6624 24.1979 26.8794 24.0097 26.9739 23.9919C27.1594 23.9493 27.1979 23.9457 27.2959 23.9635C27.3554 23.9742 27.4569 24.0097 27.5304 24.0452ZM31.8879 24.063C32.0524 24.1589 32.2134 24.4395 32.2134 24.6348C32.2134 24.7805 32.1294 24.99 32.0279 25.1002C31.6779 25.4838 31.0199 25.3275 30.8834 24.8302C30.8309 24.6313 30.8414 24.5354 30.9394 24.3329C31.1214 23.9635 31.5204 23.8498 31.8879 24.063ZM19.0639 27.8956L19.2284 28.0306L19.4069 27.9524C19.6309 27.8601 19.6344 27.8601 19.7569 27.9631L19.8584 28.0484L19.6484 28.1336L19.4419 28.2153L19.5504 28.329L19.6589 28.4426L19.8514 28.3538C20.0824 28.2508 20.0964 28.2508 20.2189 28.3538L20.3204 28.4355L20.0859 28.535L19.8549 28.6344L20.0194 28.8049L20.1804 28.9719L20.4289 28.8866L20.6774 28.8014L20.7789 28.9044L20.8804 29.0074L20.6424 29.0855C20.5094 29.1317 20.3939 29.1708 20.3869 29.1779C20.3729 29.1886 20.4359 29.2809 20.5689 29.4372L20.6634 29.5544L20.9364 29.4621C21.0834 29.4123 21.2164 29.3697 21.2269 29.3697C21.2374 29.3697 21.2794 29.4159 21.3214 29.4727L21.3984 29.5793L21.1184 29.6716L20.8384 29.7675L20.9084 29.8599C21.0904 30.1085 21.0449 30.0979 21.3774 29.9913L21.6784 29.899L21.7624 29.9984C21.8114 30.0517 21.8394 30.1085 21.8254 30.1192C21.8114 30.1334 21.6784 30.1796 21.5314 30.2222C21.3809 30.2684 21.2584 30.311 21.2584 30.3181C21.2584 30.3252 21.3179 30.4105 21.3879 30.5064C21.4719 30.62 21.5384 30.6769 21.5734 30.6662C21.6994 30.6271 22.0844 30.5419 22.1404 30.5419C22.1719 30.5419 22.2314 30.5881 22.2699 30.6449L22.3434 30.7479L22.0109 30.826C21.7764 30.8793 21.6854 30.9148 21.7029 30.9468C21.8499 31.1777 21.9409 31.2878 21.9899 31.2878C22.0529 31.2878 22.4589 31.2274 22.5779 31.199C22.6339 31.1848 22.6724 31.2097 22.7284 31.2914C22.7704 31.3482 22.8019 31.405 22.7949 31.4121C22.7879 31.4192 22.6409 31.4477 22.4694 31.4796C22.2979 31.5116 22.1509 31.5436 22.1404 31.5507C22.1299 31.5613 22.1754 31.6501 22.2419 31.746C22.3749 31.9485 22.3714 31.9449 22.7984 31.8881L23.0924 31.849L23.1729 31.9485C23.2149 32.0053 23.2394 32.0622 23.2254 32.0728C23.2114 32.087 23.0609 32.1154 22.8859 32.1403C22.7144 32.1616 22.5674 32.1865 22.5569 32.1936C22.5499 32.2007 22.5954 32.2895 22.6584 32.3889L22.7739 32.5701L23.1624 32.5488L23.5509 32.5239L23.6104 32.6305C23.6454 32.6873 23.6629 32.7442 23.6489 32.7584C23.6384 32.769 23.5474 32.7797 23.4494 32.7832C23.3514 32.7832 23.1974 32.7974 23.1064 32.8081L22.9419 32.833L23.0679 33.0354L23.1904 33.2343H23.9534H24.7164L24.8389 33.0354L24.9649 32.833L24.8004 32.8081C24.7094 32.7974 24.5554 32.7832 24.4574 32.7832C24.3594 32.7797 24.2684 32.769 24.2579 32.7584C24.2439 32.7442 24.2614 32.6873 24.2964 32.6269L24.3559 32.5239L24.7444 32.5452L25.1364 32.5665L25.2484 32.3889C25.3114 32.2895 25.3534 32.2007 25.3464 32.19C25.3359 32.1829 25.1889 32.1581 25.0174 32.1368C24.8459 32.1119 24.6954 32.087 24.6814 32.0728C24.6674 32.0586 24.6919 32.0053 24.7339 31.9485L24.8144 31.849L25.1084 31.8881C25.5389 31.9449 25.5319 31.9485 25.6614 31.7425C25.7839 31.5542 25.7769 31.5045 25.6194 31.5009C25.4969 31.5009 25.1084 31.4228 25.1084 31.3979C25.1084 31.3873 25.1434 31.334 25.1889 31.2772L25.2659 31.1813L25.5634 31.2345C25.7279 31.2629 25.8854 31.2878 25.9169 31.2878C25.9659 31.2878 26.0569 31.1741 26.2039 30.9468C26.2214 30.9148 26.1304 30.8793 25.8959 30.826L25.5634 30.7479L25.6369 30.6413C25.7209 30.5206 25.7699 30.5206 26.1969 30.6271L26.3964 30.6769L26.5259 30.4993C26.5959 30.4034 26.6484 30.3146 26.6379 30.3075C26.6309 30.3003 26.5014 30.2542 26.3474 30.208C26.1969 30.1618 26.0744 30.1156 26.0779 30.1014C26.0814 30.0872 26.1164 30.0375 26.1549 29.9878L26.2249 29.899L26.5259 29.9913C26.8619 30.0979 26.8164 30.1085 26.9984 29.8599L27.0684 29.7675L26.7884 29.6716L26.5084 29.5793L26.5854 29.4727C26.6274 29.4159 26.6694 29.3697 26.6799 29.3697C26.6904 29.3697 26.8234 29.4123 26.9739 29.4621C27.1244 29.5118 27.2504 29.5473 27.2574 29.5438C27.2609 29.5367 27.3274 29.455 27.4009 29.3591C27.4744 29.2667 27.5269 29.185 27.5199 29.1779C27.5129 29.1744 27.3974 29.1317 27.2679 29.0855L27.0299 29.0003L27.1279 28.9008L27.2294 28.8014L27.4779 28.8866L27.7264 28.9719L27.8909 28.8014L28.0519 28.6344L27.8244 28.535L27.5969 28.4391L27.6984 28.3538C27.8209 28.2473 27.8279 28.2473 28.0624 28.3538L28.2514 28.4391L28.3599 28.3254L28.4684 28.2117L28.2584 28.1301L28.0519 28.0484L28.1534 27.9631C28.2724 27.8601 28.2899 27.8601 28.5069 27.9524L28.6784 28.027L28.8429 27.8921C29.1089 27.6789 29.1264 27.6754 28.9409 27.8708L28.7694 28.0555L28.9864 28.1514C29.1054 28.2011 29.2034 28.2544 29.2034 28.265C29.2034 28.2757 29.1719 28.3254 29.1369 28.3716L29.0704 28.4604L28.8184 28.3609L28.5664 28.2579L28.4579 28.368L28.3529 28.4782L28.5594 28.567C28.6714 28.6202 28.7939 28.6735 28.8324 28.6877C28.8954 28.7161 28.8919 28.7197 28.8114 28.8191L28.7239 28.9186L28.4544 28.8049L28.1849 28.6913L28.0484 28.844C27.9714 28.9293 27.9119 29.0074 27.9084 29.0216C27.9084 29.0323 28.0134 29.0784 28.1464 29.1246C28.5174 29.2454 28.5174 29.2454 28.4299 29.3662L28.3564 29.4692L28.0554 29.3662C27.8909 29.3093 27.7439 29.2632 27.7299 29.2632C27.6809 29.2632 27.4499 29.5935 27.4779 29.6219C27.4954 29.6326 27.6354 29.6894 27.7964 29.7427C27.9539 29.7924 28.0834 29.8492 28.0834 29.8599C28.0834 29.8741 28.0519 29.9238 28.0169 29.9736L27.9469 30.0624L27.6389 29.9594C27.4709 29.9025 27.3169 29.8528 27.2959 29.8457C27.2469 29.8279 27.0544 30.1156 27.0894 30.1476C27.1069 30.1654 27.2399 30.2115 27.3834 30.2542C27.5269 30.2968 27.6669 30.3394 27.6914 30.3465C27.7264 30.3607 27.7229 30.3856 27.6739 30.4708C27.6424 30.5277 27.5969 30.5774 27.5759 30.5774C27.5584 30.5774 27.3939 30.5312 27.2154 30.4744L26.8899 30.3714L26.7709 30.5348C26.7044 30.6271 26.6484 30.7088 26.6484 30.7195C26.6484 30.7301 26.8094 30.7728 27.0019 30.8154C27.1979 30.8616 27.3659 30.9042 27.3764 30.9113C27.3834 30.922 27.3589 30.9752 27.3169 31.0321L27.2469 31.1351L26.8689 31.0498L26.4909 30.9646L26.4209 31.0534C26.3824 31.1031 26.3229 31.1919 26.2879 31.2487L26.2284 31.3518L26.6309 31.4121C26.8514 31.4477 27.0334 31.4832 27.0334 31.4903C27.0334 31.5365 26.9074 31.7141 26.8759 31.7141C26.8584 31.7141 26.6694 31.6821 26.4629 31.6466L26.0849 31.5826L25.9624 31.7638C25.8959 31.8632 25.8434 31.952 25.8434 31.9663C25.8434 31.9769 25.9799 32.0053 26.1514 32.0302C26.3194 32.0515 26.5049 32.0799 26.5679 32.0906L26.6799 32.1119L26.6239 32.2256C26.5959 32.2859 26.5679 32.3392 26.5644 32.3428C26.5609 32.3499 26.3999 32.3286 26.2109 32.3001C25.6859 32.2184 25.6859 32.2184 25.5669 32.4138C25.5074 32.5062 25.4654 32.5843 25.4689 32.5914C25.4724 32.595 25.6719 32.6163 25.9134 32.6376C26.1549 32.6589 26.3544 32.6838 26.3614 32.6909C26.3684 32.698 26.3474 32.7548 26.3159 32.8152C26.2564 32.9289 26.2564 32.9289 26.0429 32.9075C25.9239 32.8969 25.7069 32.8791 25.5634 32.8685L25.3009 32.8472L25.1889 33.0567L25.0769 33.2663L25.3639 33.2876C25.5214 33.3018 25.7419 33.3125 25.8539 33.3125C25.9624 33.3125 26.0534 33.3196 26.0534 33.3302C26.0534 33.3906 25.9309 33.5895 25.8994 33.5789C25.8784 33.5718 25.6474 33.5576 25.3884 33.5469L24.9159 33.5256L24.8004 33.7387C24.7374 33.8559 24.6954 33.9696 24.7059 33.9874C24.7164 34.0087 24.8564 34.0264 25.0139 34.0264C25.1714 34.03 25.3989 34.0406 25.5179 34.0549L25.7314 34.0762L25.6824 34.1934L25.6334 34.3106L25.0769 34.2857L24.5204 34.2609L24.4119 34.4527L24.3034 34.6445L24.4889 34.6694C24.5869 34.68 24.8564 34.6907 25.0804 34.6942L25.4899 34.6978L25.4409 34.8114L25.3954 34.9287L24.8144 34.9464L24.2334 34.9642L24.5344 35.4792C24.6989 35.7634 24.8424 36.0156 24.8529 36.0404C24.8669 36.076 24.8144 36.0831 24.6184 36.076L24.3629 36.0653L24.1669 35.703C24.0584 35.5005 23.9639 35.3371 23.9534 35.3371C23.9429 35.3371 23.8484 35.5005 23.7399 35.703L23.5439 36.0653L23.2884 36.076C23.0924 36.0831 23.0399 36.076 23.0539 36.0404C23.0644 36.0156 23.2079 35.7634 23.3724 35.4792L23.6734 34.9642L23.0924 34.9464L22.5114 34.9287L22.4659 34.8114L22.4169 34.6978L22.8089 34.6942C23.0259 34.6907 23.2919 34.68 23.4004 34.6658L23.6034 34.6445L23.4949 34.4527L23.3864 34.2609L22.8299 34.2857L22.2734 34.3142L22.2244 34.1934L22.1754 34.0762L22.3889 34.0549C22.5079 34.0406 22.7424 34.03 22.9139 34.0264C23.1309 34.0229 23.2184 34.0087 23.2184 33.9767C23.2184 33.9554 23.1659 33.8453 23.1029 33.7387L22.9874 33.5434L22.4764 33.5576L21.9654 33.5718L21.9094 33.4617C21.8779 33.4013 21.8534 33.3444 21.8534 33.3302C21.8534 33.3196 21.9829 33.3125 22.1439 33.3089C22.3014 33.3054 22.5219 33.2947 22.6304 33.2805L22.8334 33.2592L22.7179 33.0638C22.5849 32.8401 22.6129 32.8472 21.9864 32.8969L21.6469 32.9253L21.5909 32.8152C21.5594 32.7513 21.5384 32.698 21.5454 32.6909C21.5524 32.6838 21.7519 32.6589 21.9934 32.6376C22.2349 32.6163 22.4344 32.595 22.4379 32.5879C22.4414 32.5843 22.3959 32.5062 22.3364 32.4138C22.2139 32.222 22.2244 32.222 21.6959 32.3001C21.5069 32.3286 21.3459 32.3463 21.3424 32.3428C21.3074 32.3001 21.2269 32.1048 21.2409 32.1048C21.3004 32.1048 22.0494 31.9876 22.0599 31.9769C22.0669 31.9698 22.0214 31.8846 21.9584 31.7851C21.8289 31.5791 21.8219 31.5791 21.3634 31.6608C21.1989 31.6892 21.0484 31.7141 21.0309 31.7141C20.9994 31.7141 20.8734 31.5365 20.8734 31.4903C20.8734 31.4832 21.0554 31.4477 21.2759 31.4121L21.6784 31.3518L21.6189 31.2487C21.5839 31.1919 21.5244 31.1031 21.4859 31.0534L21.4159 30.9646L21.0309 31.0534C20.8209 31.1031 20.6459 31.1386 20.6459 31.1351C20.6424 31.1315 20.6144 31.0818 20.5794 31.0285C20.5444 30.9717 20.5234 30.922 20.5304 30.9148C20.5374 30.9077 20.6984 30.8651 20.8909 30.8225C21.0834 30.7799 21.2479 30.7372 21.2514 30.7337C21.2864 30.7088 21.0379 30.3998 20.9854 30.3998C20.9539 30.3998 20.7999 30.4389 20.6459 30.4886C20.4919 30.5383 20.3484 30.5774 20.3309 30.5774C20.3099 30.5774 20.2644 30.5312 20.2329 30.4708L20.1699 30.3678L20.4779 30.2719C20.6459 30.2187 20.7999 30.1654 20.8174 30.1476C20.8524 30.1156 20.6599 29.8279 20.6109 29.8457C20.5934 29.8528 20.4359 29.9025 20.2679 29.9594L19.9599 30.0624L19.8899 29.9736C19.8549 29.9238 19.8234 29.8741 19.8234 29.8599C19.8234 29.8492 19.9529 29.7924 20.1139 29.7427C20.2714 29.6894 20.4114 29.6326 20.4289 29.6219C20.4569 29.5935 20.2224 29.2632 20.1734 29.2632C20.1559 29.2632 20.0124 29.3093 19.8514 29.3662L19.5609 29.4727L19.4839 29.3768C19.4419 29.3235 19.4209 29.2703 19.4314 29.256C19.4454 29.2454 19.5784 29.1921 19.7289 29.1388C19.8759 29.0855 19.9984 29.0323 19.9984 29.0181C19.9949 29.0074 19.9354 28.9293 19.8619 28.844L19.7289 28.6877L19.4559 28.8049L19.1829 28.9222L19.0954 28.8191C19.0149 28.7197 19.0114 28.7161 19.0744 28.6877C19.1129 28.6735 19.2354 28.6202 19.3474 28.567L19.5539 28.4782L19.4489 28.368L19.3404 28.2579L19.0884 28.3609L18.8364 28.4604L18.7699 28.3716C18.7349 28.3254 18.7034 28.2757 18.7034 28.265C18.7034 28.2508 18.7944 28.2046 18.9064 28.1585C19.0149 28.1158 19.1129 28.0732 19.1199 28.0661C19.1304 28.059 19.0604 27.9702 18.9624 27.8708C18.7804 27.6754 18.7979 27.6789 19.0639 27.8956Z" fill="white"/>
    <path d="M23.3934 33.5256C23.3934 33.5469 23.4494 33.6499 23.5159 33.7565L23.6384 33.9518H23.9499C24.2964 33.9518 24.2684 33.9696 24.4749 33.6215L24.5554 33.4901H23.9744C23.5929 33.4901 23.3934 33.5043 23.3934 33.5256Z" fill="white"/>
    <path d="M23.8659 34.3426C23.8974 34.3994 23.9359 34.4491 23.9534 34.4491C23.9709 34.4491 24.0094 34.3994 24.0409 34.3426L24.0969 34.236H23.9534H23.8099L23.8659 34.3426Z" fill="white"/>
    <path d="M23.8484 38.8643C23.6804 38.9496 23.6384 39.1449 23.7119 39.5001C23.7609 39.731 23.8624 39.937 23.9394 39.969C24.0899 40.0294 24.2649 39.731 24.3174 39.3261C24.3664 38.9425 24.1354 38.7151 23.8484 38.8643ZM24.1494 39.0206C24.1949 39.0703 24.2019 39.1201 24.1879 39.2835C24.1634 39.5072 24.0584 39.8163 24.0059 39.8269C23.9394 39.834 23.8449 39.5676 23.8239 39.3119C23.8064 39.0881 23.8099 39.049 23.8659 39.01C23.9569 38.9425 24.0759 38.9496 24.1494 39.0206Z" fill="white"/>
    <path d="M20.8979 11.7836C20.8384 11.8049 20.8384 11.812 20.9014 11.8866C20.9714 11.9683 21.0834 11.9931 21.0834 11.9256C21.0834 11.8724 21.0169 11.7516 20.9854 11.7551C20.9714 11.7551 20.9329 11.7693 20.8979 11.7836Z" fill="white"/>
    <path d="M20.6214 12.0819C20.5059 12.1317 20.5409 12.2347 20.6599 12.2027C20.7159 12.1885 20.7334 12.1991 20.7334 12.2489C20.7334 12.3306 20.7754 12.359 20.8349 12.3199C20.8699 12.3022 20.8769 12.2524 20.8594 12.1636C20.8314 12.0251 20.7859 12.0073 20.6214 12.0819Z" fill="white"/>
    <path d="M19.3614 12.1672C19.2879 12.1849 19.2879 12.1956 19.3334 12.2879C19.3544 12.3235 19.4034 12.3554 19.4419 12.3554C19.4979 12.3554 19.5119 12.3377 19.5014 12.2595C19.4909 12.1601 19.4594 12.1423 19.3614 12.1672Z" fill="white"/>
    <path d="M19.0464 12.3981C18.9344 12.4371 18.9204 12.4904 19.0114 12.5224C19.0429 12.5366 19.0849 12.565 19.0989 12.5934C19.1409 12.6645 19.2179 12.6467 19.2424 12.5579C19.2949 12.3554 19.2529 12.3199 19.0464 12.3981Z" fill="white"/>
    <path d="M23.8659 12.2737C23.8169 12.3483 23.7784 12.4194 23.7784 12.4371C23.7784 12.4798 23.9604 12.7462 23.9919 12.7462C24.0059 12.7462 24.0689 12.6751 24.1249 12.5899L24.2299 12.4336L24.1284 12.2879C24.0689 12.2063 24.0094 12.1423 23.9884 12.1423C23.9709 12.1423 23.9149 12.2027 23.8659 12.2737ZM24.0444 12.4833C24.0339 12.5117 24.0094 12.533 23.9919 12.533C23.9394 12.533 23.9149 12.4194 23.9604 12.3661C23.9954 12.3235 24.0059 12.3235 24.0339 12.3732C24.0514 12.4052 24.0549 12.4549 24.0444 12.4833Z" fill="white"/>
    <path d="M26.8969 11.8297C26.8409 11.9789 26.9179 12.0109 27.0439 11.8937C27.1069 11.8297 27.1139 11.8155 27.0684 11.7871C26.9844 11.7303 26.9284 11.748 26.8969 11.8297Z" fill="white"/>
    <path d="M27.0859 12.1636C27.0719 12.256 27.0789 12.3022 27.1069 12.3235C27.1664 12.359 27.2084 12.3306 27.2084 12.2524C27.2084 12.2027 27.2294 12.192 27.2924 12.2027C27.4254 12.2311 27.4359 12.121 27.3064 12.0748C27.1384 12.0144 27.1139 12.0251 27.0859 12.1636Z" fill="white"/>
    <path d="M28.4579 12.1672C28.4439 12.1778 28.4334 12.2276 28.4334 12.2737C28.4334 12.3412 28.4509 12.359 28.5069 12.3483C28.5804 12.3377 28.6749 12.2347 28.6434 12.2027C28.6049 12.1672 28.4789 12.1423 28.4579 12.1672Z" fill="white"/>
    <path d="M28.6924 12.4691C28.7239 12.6218 28.7764 12.6751 28.8289 12.6005C28.8534 12.5721 28.8989 12.5366 28.9339 12.5224C29.0249 12.4869 29.0074 12.4371 28.8849 12.3945C28.6959 12.327 28.6679 12.3412 28.6924 12.4691Z" fill="white"/>
    <path d="M12.1759 26.9508C12.1374 27.0183 12.2074 27.2101 12.3019 27.2918C12.4209 27.3912 12.4314 27.4942 12.3369 27.6541C12.2809 27.7464 12.2774 27.7748 12.3124 27.8033C12.3474 27.8317 12.3684 27.8317 12.3929 27.7997C12.4804 27.6896 12.5434 27.5155 12.5434 27.3912C12.5434 27.2705 12.5294 27.2491 12.4384 27.2136C12.3614 27.1852 12.3264 27.1426 12.3124 27.0644C12.2914 26.9614 12.2144 26.8939 12.1759 26.9508Z" fill="white"/>
    <path d="M35.6889 26.9437C35.6644 26.9543 35.6434 27.0005 35.6434 27.0467C35.6434 27.1106 35.6084 27.1568 35.5209 27.2065C35.4194 27.2705 35.3984 27.3024 35.3984 27.4019C35.3984 27.5227 35.5034 27.782 35.5699 27.821C35.5874 27.8317 35.6189 27.821 35.6364 27.7962C35.6644 27.7642 35.6574 27.7216 35.6084 27.647C35.5104 27.4978 35.5209 27.3912 35.6399 27.2882C35.7939 27.1568 35.8289 26.8904 35.6889 26.9437Z" fill="white"/>
    <path d="M11.6824 29.217C11.6194 29.4692 11.8539 30.1689 12.0009 30.1689C12.0499 30.1689 12.0779 30.1298 12.1129 30.0091C12.1374 29.9203 12.1899 29.8208 12.2319 29.7889C12.2774 29.7498 12.2984 29.7036 12.2844 29.6681C12.2634 29.6148 12.2529 29.6148 12.1829 29.661C12.1409 29.6894 12.0709 29.7746 12.0289 29.8492L11.9554 29.9842L11.8819 29.7462C11.8399 29.6113 11.8084 29.4194 11.8084 29.3129C11.8084 29.1672 11.7944 29.1211 11.7559 29.1211C11.7279 29.1211 11.6929 29.1637 11.6824 29.217Z" fill="white"/>
    <path d="M36.1264 29.3946C36.1159 29.5473 36.0809 29.7427 36.0459 29.8279L35.9829 29.9842L35.9164 29.8563C35.8814 29.7853 35.8184 29.7036 35.7764 29.6752C35.7064 29.6255 35.6959 29.6255 35.6679 29.6752C35.6469 29.7143 35.6574 29.7462 35.7099 29.7817C35.7484 29.8102 35.8009 29.899 35.8219 29.9736C35.8674 30.1298 35.9339 30.2044 35.9934 30.1689C36.0564 30.1298 36.1929 29.8208 36.2384 29.6184C36.2909 29.3662 36.2734 29.1424 36.1999 29.1282C36.1509 29.1211 36.1404 29.1637 36.1264 29.3946Z" fill="white"/>
    <path d="M12.8304 31.5897C12.8409 31.6785 12.8759 31.7887 12.9074 31.8384C13.0089 31.9947 13.2434 32.0444 13.2434 31.9094C13.2434 31.8775 13.2119 31.8561 13.1559 31.8561C13.0544 31.8561 12.9809 31.7531 12.9494 31.5613C12.9319 31.4761 12.9074 31.4299 12.8689 31.4299C12.8234 31.4299 12.8164 31.4583 12.8304 31.5897Z" fill="white"/>
    <path d="M34.9924 31.5613C34.9609 31.7531 34.8874 31.8561 34.7859 31.8561C34.6879 31.8561 34.6634 31.952 34.7544 31.9876C34.9014 32.0444 35.0799 31.8455 35.1184 31.5862C35.1394 31.4512 35.1324 31.4299 35.0799 31.4299C35.0344 31.4299 35.0099 31.469 34.9924 31.5613Z" fill="white"/>
    <path d="M15.2909 34.7333L15.3154 34.9109H15.2069C15.1369 34.9109 15.0984 34.9287 15.0984 34.9606C15.0984 35.0139 15.2034 35.053 15.3539 35.053C15.4589 35.053 15.4659 35.021 15.4274 34.7191C15.4099 34.5877 15.3889 34.5557 15.3364 34.5557C15.2734 34.5557 15.2699 34.5735 15.2909 34.7333Z" fill="white"/>
    <path d="M32.5494 34.5841C32.5424 34.5983 32.5214 34.712 32.5074 34.8328L32.4829 35.053H32.5844C32.7384 35.053 32.8434 35.0139 32.8434 34.9606C32.8434 34.9287 32.8049 34.9109 32.7349 34.9109H32.6264L32.6509 34.7333C32.6719 34.5877 32.6649 34.5557 32.6229 34.5557C32.5914 34.5557 32.5599 34.5699 32.5494 34.5841Z" fill="white"/>
    <path d="M15.6339 35.0068C15.6094 35.0175 15.5884 35.0707 15.5884 35.1276C15.5884 35.2022 15.5744 35.2235 15.5359 35.2093C15.5009 35.1951 15.4834 35.2093 15.4834 35.259C15.4834 35.3087 15.5114 35.3336 15.5779 35.3478C15.7109 35.3727 15.7284 35.3549 15.7284 35.2022C15.7284 35.053 15.6934 34.9855 15.6339 35.0068Z" fill="white"/>
    <path d="M32.2344 35.0636C32.2064 35.1737 32.2099 35.33 32.2414 35.3478C32.2554 35.3585 32.3079 35.3585 32.3639 35.3478C32.4304 35.3336 32.4584 35.3087 32.4584 35.259C32.4584 35.2093 32.4409 35.1951 32.4059 35.2093C32.3674 35.2235 32.3534 35.2022 32.3534 35.1276C32.3534 35.0032 32.2624 34.9535 32.2344 35.0636Z" fill="white"/>
    <path d="M15.8824 35.2945C15.8614 35.3087 15.8334 35.3549 15.8194 35.4011C15.7984 35.4615 15.8089 35.4863 15.8754 35.5112C16.0014 35.5609 16.0539 35.497 15.9874 35.3691C15.9314 35.2554 15.9349 35.259 15.8824 35.2945Z" fill="white"/>
    <path d="M31.9614 35.3513C31.9089 35.4757 31.9439 35.5467 32.0524 35.5254C32.1504 35.5041 32.1644 35.4473 32.1084 35.3336C32.0594 35.2412 32.0104 35.2483 31.9614 35.3513Z" fill="white"/>
    <path d="M22.8544 39.7701C22.8334 39.8056 23.0994 40.239 23.1449 40.239C23.2289 40.239 23.2114 40.1573 23.0889 39.9548C22.9664 39.7559 22.8964 39.7026 22.8544 39.7701Z" fill="white"/>
    <path d="M24.9159 39.9583C24.8144 40.1253 24.7934 40.1821 24.8249 40.2141C24.8739 40.2603 24.9124 40.2212 25.0629 39.9655C25.1434 39.8269 25.1469 39.7417 25.0734 39.7417C25.0559 39.7417 24.9859 39.8376 24.9159 39.9583Z" fill="white"/>
    <path d="M24 16L27.0311 17.9688H20.9689L24 16Z" fill="black"/>
    <circle cx="25.9688" cy="20.55" r="0.60625" fill="white" stroke="black" stroke-width="0.1"/>
    <circle cx="22.0312" cy="20.55" r="0.60625" fill="white" stroke="black" stroke-width="0.1"/>
    <path d="M26.897 18.0188L24 20.5276L21.103 18.0187L26.897 18.0188Z" fill="white" stroke="black" stroke-width="0.1"/>
    <path d="M29.5 21L32.5311 22.9688H26.4689L29.5 21Z" fill="black"/>
    <circle cx="31.4688" cy="25.55" r="0.60625" fill="white" stroke="black" stroke-width="0.1"/>
    <circle cx="27.5312" cy="25.55" r="0.60625" fill="white" stroke="black" stroke-width="0.1"/>
    <path d="M32.397 23.0188L29.5 25.5276L26.603 23.0187L32.397 23.0188Z" fill="white" stroke="black" stroke-width="0.1"/>
    <path d="M18.5 21L21.5311 22.9688H15.4689L18.5 21Z" fill="black"/>
    <circle cx="20.4688" cy="25.55" r="0.60625" fill="white" stroke="black" stroke-width="0.1"/>
    <circle cx="16.5312" cy="25.55" r="0.60625" fill="white" stroke="black" stroke-width="0.1"/>
    <path d="M21.397 23.0188L18.5 25.5276L15.603 23.0187L21.397 23.0188Z" fill="white" stroke="black" stroke-width="0.1"/>
</svg>
